SplineFontDB: 3.0
FontName: Nika-Regular
FullName: Nika Regular
FamilyName: Nika
Weight: Regular
Copyright: Copyright (c) 2016 Copyright Holder Persian Font Store (info@font-store.ir), with Reserved Font Name "Nika"
UComments: "2015-5-13: Created with FontForge (http://fontforge.org)"
Version: Version:0.0.9;RFB:1.2.5;Building:2016-03-29 18:20:16.733886
FONDName: RITA
ItalicAngle: 0
UnderlinePosition: 500
UnderlineWidth: 59
Ascent: 800
Descent: 500
InvalidEm: 0
sfntRevision: 0x00010000
LayerCount: 2
Layer: 0 0 "Back" 1
Layer: 1 0 "Fore" 0
PreferredKerning: 4
XUID: [1021 828 -1901974348 32649]
StyleMap: 0x0040
FSType: 0
OS2Version: 0
OS2_WeightWidthSlopeOnly: 0
OS2_UseTypoMetrics: 0
CreationTime: 1431477301
ModificationTime: 1459259416
PfmFamily: 33
TTFWeight: 400
TTFWidth: 5
LineGap: 100
VLineGap: 0
Panose: 2 0 5 3 0 0 0 0 0 0
OS2TypoAscent: 800
OS2TypoAOffset: 0
OS2TypoDescent: -500
OS2TypoDOffset: 0
OS2TypoLinegap: 100
OS2WinAscent: 1100
OS2WinAOffset: 0
OS2WinDescent: 700
OS2WinDOffset: 0
HheadAscent: 1100
HheadAOffset: 0
HheadDescent: -700
HheadDOffset: 0
OS2SubXSize: 780
OS2SubYSize: 839
OS2SubXOff: -107
OS2SubYOff: 168
OS2SupXSize: 780
OS2SupYSize: 839
OS2SupXOff: 369
OS2SupYOff: 575
OS2StrikeYSize: 59
OS2StrikeYPos: 310
OS2Vendor: 'RITA'
OS2CodePages: 00000040.00000000
OS2UnicodeRanges: 80002003.80002000.00000008.00000000
MacStyle: 0
Lookup: 4 1 1 "'ccmp' Glyph Composition/Decomposition in Arabic lookup 5" { "'ccmp' Glyph Composition/Decomposition in Arabic lookup 5-1"  } ['ccmp' ('DFLT' <'dflt' > 'arab' <'dflt' > ) ]
Lookup: 1 9 0 "'isol' Isolated Forms in Latin lookup 1" { "'isol' Isolated Forms in Latin lookup 1-1"  } ['isol' ('DFLT' <'dflt' > 'arab' <'dflt' > ) ]
Lookup: 1 9 0 "'fina' Terminal Forms in Arabic lookup 3" { "'fina' Terminal Forms in Arabic lookup 3-1"  } ['fina' ('DFLT' <'dflt' > 'arab' <'dflt' > ) ]

StartChar: _.alef.isol
Encoding: 65536 -1 0
GlifName: _.alef.isol
Width: 217
VWidth: 1304
GlyphClass: 2
Flags: HMW
LayerCount: 2
Fore
SplineSet
64 718 m 0
 64 752 72 762 141 800 c 0
 148 800 153 798 153 789 c 2
 153 20 l 2
 153 -7 125 -25 106 -25 c 0
 96 -25 89 -20 89 -10 c 2
 64 700 l 2
 64 707 64 713 64 718 c 0
EndSplineSet
Colour: ffda6b
EndChar

StartChar: _.alef.fina
Encoding: 65537 -1 1
GlifName: _.alef.fina
Width: 287
VWidth: 1304
GlyphClass: 2
Flags: HMW
LayerCount: 2
Fore
SplineSet
64 718 m 0
 64 752 72 762 141 800 c 0
 148 800 153 798 153 789 c 2
 153 181 l 2
 153 110 207 100 276 100 c 2
 287 100 l 1
 287 -0 l 1
 272 -0 l 2
 145 0 89 56 83 141 c 1
 64 700 l 2
 64 707 64 713 64 718 c 0
EndSplineSet
Colour: ffda6b
EndChar

StartChar: _.beh.isol
Encoding: 65540 -1 4
GlifName: _.beh.isol
Width: 930
VWidth: 1304
GlyphClass: 2
UnlinkRmOvrlpSave: 1
Flags: HMW
LayerCount: 2
Fore
SplineSet
64 217 m 0
 64 267 76 327 102 400 c 0
 104 406 113 409 118 407 c 2
 153 393 l 2
 158 391 163 384 159 373 c 0
 142 328 135 289 135 256 c 0
 135 138 238 100 369 100 c 0
 371 100 372 100 374 100 c 0
 540 100 683 134 791 172 c 1
 791 175 791 178 791 181 c 0
 791 230 765 319 752 364 c 0
 747 379 754 386 759 391 c 2
 807 432 l 2
 819 442 827 432 829 425 c 0
 851 354 866 287 866 229 c 0
 866 219 866 209 865 200 c 0
 860 152 842 99 753 65 c 1
 647 31 546 -1 358 -1 c 0
 199 -1 64 47 64 217 c 0
EndSplineSet
Colour: ffda6b
EndChar

StartChar: _.beh.fina
Encoding: 65541 -1 5
GlifName: _.beh.fina
Width: 1020
VWidth: 1304
GlyphClass: 2
UnlinkRmOvrlpSave: 1
Flags: HMW
LayerCount: 2
Fore
SplineSet
64 217 m 0
 64 267 76 327 102 400 c 0
 104 406 113 409 118 407 c 2
 153 393 l 2
 158 391 163 384 159 373 c 0
 142 328 135 289 135 256 c 0
 135 138 238 100 369 100 c 0
 371 100 372 100 374 100 c 0
 540 100 682 134 792 172 c 1
 770 287 l 2
 768 296 775 305 782 306 c 2
 825 317 l 2
 832 318 843 314 845 305 c 2
 860 229 l 2
 881 116 896 100 1020 100 c 1
 1020 -0 l 1
 942 0 853 14 814 90 c 1
 797 84 776 75 753 65 c 0
 647 31 546 -1 358 -1 c 0
 199 -1 64 47 64 217 c 0
EndSplineSet
Colour: ffda6b
EndChar

StartChar: _.beh.medi
Encoding: 65542 -1 6
GlifName: _.beh.medi
Width: 418
VWidth: 1304
GlyphClass: 2
UnlinkRmOvrlpSave: 1
Flags: HMW
LayerCount: 2
Fore
SplineSet
-50 49 m 0
 -50 76 -27 100 -1 100 c 2
 25 100 l 2
 82 100 124 108 161 124 c 0
 173 133 184 144 184 160 c 2
 184 300 l 2
 184 314 186 325 204 330 c 2
 239 338 l 2
 254 342 264 337 264 320 c 2
 264 160 l 2
 264 140 276 124 297 118 c 0
 334 107 391 100 418 100 c 1
 418 -0 l 1
 354 0 268 14 221 64 c 1
 178 18 109 0 25 -0 c 2
 -1 -0 l 2
 -25 0 -50 24 -50 49 c 0
EndSplineSet
Colour: ffda6b
EndChar

StartChar: _.beh.init
Encoding: 65543 -1 7
GlifName: _.beh.init
Width: 326
VWidth: 1197
GlyphClass: 1
UnlinkRmOvrlpSave: 1
Flags: HMW
LayerCount: 2
Fore
SplineSet
-50 49 m 0
 -50 76 -27 100 -1 100 c 0
 10 100 22 100 33 100 c 0
 102 100 153 115 185 135 c 1
 185 138 185 141 185 144 c 0
 185 193 159 282 146 327 c 0
 141 342 148 349 153 354 c 2
 202 396 l 2
 214 407 223 396 225 390 c 0
 248 320 262 253 262 195 c 0
 262 79 203 0 28 -0 c 2
 -1 -0 l 2
 -25 0 -50 24 -50 49 c 0
EndSplineSet
Colour: ffda6b
EndChar

StartChar: _.heh.isol
Encoding: 65544 -1 8
GlifName: _.heh.isol
Width: 785
VWidth: 1304
GlyphClass: 1
UnlinkRmOvrlpSave: 1
Flags: HMW
LayerCount: 2
Fore
SplineSet
66 282 m 2
 78 309 l 2
 105 371 134 431 225 431 c 0
 342 431 511 322 702 320 c 0
 714 320 724 316 720 301 c 2
 699 232 l 2
 697 223 686 220 675 220 c 0
 666 220 656 220 647 221 c 1
 647 220 l 1
 408 220 186 74 153 -74 c 0
 151 -85 150 -96 150 -107 c 0
 150 -204 246 -300 482 -300 c 0
 526 -300 575 -296 630 -289 c 0
 644 -288 646 -289 642 -305 c 2
 630 -370 l 2
 628 -381 625 -388 604 -389 c 0
 549 -396 498 -400 451 -400 c 0
 210 -400 87 -309 87 -139 c 0
 87 -120 89 -100 92 -79 c 0
 114 68 228 211 416 279 c 1
 341 305 272 329 216 330 c 0
 175 330 159 324 132 277 c 2
 118 251 l 2
 114 244 103 243 96 245 c 2
 72 255 l 2
 63 259 62 273 66 282 c 2
EndSplineSet
Colour: ffda6b
EndChar

StartChar: _.heh.fina
Encoding: 65545 -1 9
GlifName: _.heh.fina
Width: 765
VWidth: 1304
GlyphClass: 1
UnlinkRmOvrlpSave: 1
Flags: HMW
LayerCount: 2
Fore
SplineSet
66 282 m 2
 78 309 l 2
 105 371 134 431 225 431 c 0
 342 431 511 322 702 320 c 0
 714 320 724 316 720 301 c 2
 699 232 l 2
 697 223 686 220 675 220 c 0
 666 220 657 220 647 221 c 1
 647 220 l 1
 631 220 616 220 601 219 c 1
 608 180 612 156 627 139 c 0
 655 106 724 100 765 100 c 1
 765 -0 l 1
 697 0 606 13 557 76 c 1
 542 102 542 103 533 152 c 2
 524 208 l 1
 336 169 180 48 153 -74 c 0
 151 -85 150 -96 150 -107 c 0
 150 -204 246 -300 482 -300 c 0
 526 -300 575 -296 630 -289 c 0
 644 -288 646 -289 642 -305 c 2
 630 -370 l 2
 628 -381 625 -388 604 -389 c 0
 549 -396 498 -400 451 -400 c 0
 210 -400 87 -309 87 -139 c 0
 87 -120 89 -100 92 -79 c 0
 114 67 229 210 416 278 c 1
 342 304 271 329 216 330 c 0
 175 330 159 324 132 277 c 2
 118 251 l 2
 114 244 103 243 96 245 c 2
 72 255 l 2
 63 259 62 273 66 282 c 2
EndSplineSet
Colour: ffda6b
EndChar

StartChar: _.heh.medi
Encoding: 65546 -1 10
GlifName: _.heh.medi
Width: 772
VWidth: 1304
GlyphClass: 1
UnlinkRmOvrlpSave: 1
Flags: HMW
LayerCount: 2
Fore
SplineSet
-50 50 m 0
 -50 75 -26 100 -1 100 c 2
 68 100 l 2
 288 100 371 196 477 261 c 1
 382 292 292 329 223 330 c 0
 182 330 167 324 140 277 c 2
 125 251 l 2
 121 244 110 243 103 245 c 2
 79 255 l 2
 70 259 69 273 73 282 c 2
 85 309 l 2
 112 371 141 431 232 431 c 0
 349 431 519 322 710 320 c 0
 722 320 731 316 727 301 c 2
 706 232 l 2
 704 223 693 220 682 220 c 2
 642 220 l 2
 631 220 620 218 609 216 c 1
 616 178 619 156 634 139 c 0
 662 106 731 100 772 100 c 1
 772 -0 l 1
 704 0 613 13 564 76 c 1
 549 102 549 103 540 152 c 2
 534 191 l 1
 421 131 324 0 72 -0 c 2
 -1 -0 l 1
 -26 1 -50 24 -50 50 c 0
EndSplineSet
Colour: ffda6b
EndChar

StartChar: _.heh.init
Encoding: 65547 -1 11
GlifName: _.heh.init
Width: 792
VWidth: 1304
GlyphClass: 1
UnlinkRmOvrlpSave: 1
Flags: HMW
LayerCount: 2
Fore
SplineSet
-50 50 m 0
 -50 75 -26 100 -1 100 c 2
 68 100 l 2
 288 100 371 196 477 261 c 1
 382 292 292 329 223 330 c 0
 182 330 167 324 140 277 c 2
 125 251 l 2
 121 244 110 243 103 245 c 2
 79 255 l 2
 70 259 69 273 73 282 c 2
 85 309 l 2
 112 371 141 431 232 431 c 0
 349 431 519 322 710 320 c 0
 722 320 731 316 727 301 c 2
 706 232 l 2
 704 223 693 220 682 220 c 2
 642 220 l 1
 463 219 398 0 72 -0 c 2
 -1 -0 l 1
 -26 1 -50 24 -50 50 c 0
EndSplineSet
Colour: ffda6b
EndChar

StartChar: _.sin.isol
Encoding: 65548 -1 12
GlifName: _.sin.isol
Width: 1355
VWidth: 1304
GlyphClass: 1
UnlinkRmOvrlpSave: 1
Flags: HMW
LayerCount: 2
Fore
SplineSet
64 -30 m 0
 64 38 80 121 118 220 c 0
 122 230 130 235 139 231 c 2
 168 220 l 2
 175 218 181 207 176 196 c 0
 146 122 133 58 133 6 c 0
 133 -137 229 -200 339 -200 c 0
 472 -200 593 -140 636 -65 c 1
 637 -59 638 -53 638 -45 c 0
 638 16 600 143 579 208 c 0
 574 224 578 232 588 241 c 2
 636 282 l 2
 641 287 649 288 653 278 c 0
 661 254 671 227 679 199 c 0
 696 136 764 100 816 100 c 0
 868 100 913 126 923 168 c 2
 952 288 l 2
 953 295 964 302 971 300 c 2
 1018 287 l 2
 1028 285 1032 273 1031 264 c 2
 1002 133 l 1
 1034 111 1081 91 1113 90 c 0
 1128 90 1181 96 1211 113 c 1
 1211 117 1211 120 1211 124 c 0
 1211 163 1200 206 1172 296 c 0
 1168 308 1172 314 1178 320 c 1
 1231 362 l 2
 1238 368 1248 372 1252 358 c 0
 1270 306 1291 238 1291 165 c 0
 1291 163 1291 161 1291 159 c 0
 1291 52 1215 -10 1113 -10 c 0
 1065 -10 995 19 959 56 c 1
 922 18 867 0 813 -0 c 0
 777 0 742 10 712 28 c 1
 713 14 713 2 712 -9 c 0
 700 -170 551 -301 333 -301 c 0
 195 -301 64 -225 64 -30 c 0
EndSplineSet
Colour: ffda6b
EndChar

StartChar: _.sin.fina
Encoding: 65549 -1 13
GlifName: _.sin.fina
Width: 1452
VWidth: 1304
GlyphClass: 1
UnlinkRmOvrlpSave: 1
Flags: HMW
LayerCount: 2
Fore
SplineSet
64 -30 m 0
 64 38 80 121 118 220 c 0
 122 230 130 235 139 231 c 2
 168 220 l 2
 175 218 181 207 176 196 c 0
 146 122 133 58 133 6 c 0
 133 -137 229 -200 339 -200 c 0
 472 -200 593 -140 636 -65 c 1
 637 -59 638 -53 638 -45 c 0
 638 16 600 143 579 208 c 0
 574 224 578 232 588 241 c 2
 636 282 l 2
 641 287 649 288 653 278 c 0
 663 252 673 222 682 191 c 0
 703 133 766 100 815 100 c 0
 868 100 912 126 923 168 c 1
 951 288 l 2
 952 295 964 302 970 300 c 2
 1018 287 l 2
 1027 285 1031 273 1030 264 c 2
 999 125 l 1
 1033 108 1071 99 1109 99 c 0
 1149 99 1188 110 1223 132 c 1
 1190 320 l 2
 1189 331 1198 336 1205 342 c 2
 1249 381 l 2
 1253 383 1259 388 1261 379 c 1
 1286 229 l 1
 1295 183 1297 157 1313 139 c 0
 1341 106 1411 100 1452 100 c 1
 1452 -0 l 1
 1392 0 1314 11 1264 55 c 1
 1218 19 1161 0 1105 0 c 0
 1052 0 1000 17 955 53 c 1
 917 17 864 0 812 -0 c 0
 778 0 742 10 712 27 c 1
 713 15 713 2 712 -9 c 0
 700 -170 551 -301 333 -301 c 0
 195 -301 64 -225 64 -30 c 0
EndSplineSet
Colour: ffda6b
EndChar

StartChar: _.sin.medi
Encoding: 65550 -1 14
GlifName: _.sin.medi
Width: 1021
VWidth: 1304
GlyphClass: 1
UnlinkRmOvrlpSave: 1
Flags: HMW
LayerCount: 2
Fore
SplineSet
-50 49 m 0
 -50 76 -27 100 -1 100 c 0
 110 100 176 110 193 180 c 2
 220 287 l 2
 222 294 232 301 239 299 c 2
 286 285 l 2
 295 283 300 273 298 263 c 2
 271 141 l 1
 304 113 345 100 382 100 c 0
 435 100 482 125 492 168 c 2
 520 288 l 2
 521 295 532 302 538 300 c 2
 586 287 l 2
 595 285 600 273 599 264 c 2
 568 125 l 1
 602 108 640 99 678 99 c 0
 718 99 757 110 792 132 c 1
 759 320 l 2
 758 331 767 336 774 342 c 2
 818 381 l 2
 822 383 828 388 830 379 c 1
 855 229 l 1
 864 183 866 157 882 139 c 0
 910 106 980 100 1021 100 c 1
 1021 -0 l 1
 961 0 883 11 833 55 c 1
 787 19 730 0 674 0 c 0
 621 0 569 17 524 53 c 1
 486 17 431 0 378 -0 c 0
 318 0 260 21 227 60 c 1
 172 8 74 0 -1 -0 c 0
 -25 0 -50 24 -50 49 c 0
EndSplineSet
Colour: ffda6b
EndChar

StartChar: _.sin.init
Encoding: 65551 -1 15
GlifName: _.sin.init
Width: 923
VWidth: 1304
GlyphClass: 1
UnlinkRmOvrlpSave: 1
Flags: HMW
LayerCount: 2
Fore
SplineSet
-50 49 m 0
 -50 76 -27 100 -1 100 c 0
 110 100 176 110 193 180 c 2
 220 287 l 2
 222 294 232 301 239 299 c 2
 286 285 l 2
 295 283 300 273 298 263 c 2
 271 141 l 1
 304 113 345 100 382 100 c 0
 435 100 482 125 492 168 c 2
 520 288 l 2
 521 295 532 302 538 300 c 2
 586 287 l 2
 595 285 600 273 599 264 c 2
 570 133 l 1
 602 111 648 91 680 90 c 0
 695 90 749 96 779 113 c 1
 779 117 779 121 779 125 c 0
 779 163 768 207 739 296 c 0
 735 308 739 314 745 320 c 1
 798 362 l 2
 805 368 815 372 819 358 c 0
 838 307 859 238 859 165 c 0
 859 163 859 161 859 159 c 0
 859 52 783 -10 680 -10 c 0
 632 -10 561 19 527 56 c 1
 489 18 433 0 378 0 c 0
 318 0 260 21 227 60 c 1
 172 8 74 0 -1 -0 c 0
 -25 0 -50 24 -50 49 c 0
EndSplineSet
Colour: ffda6b
EndChar

StartChar: _.sad.isol
Encoding: 65552 -1 16
GlifName: _.sad.isol
Width: 1407
VWidth: 1304
GlyphClass: 1
UnlinkRmOvrlpSave: 1
Flags: HMW
LayerCount: 2
Fore
SplineSet
64 -30 m 0
 64 38 80 121 118 220 c 0
 122 230 130 235 139 231 c 2
 168 220 l 2
 175 218 181 207 176 196 c 0
 146 122 133 58 133 6 c 0
 133 -137 229 -200 339 -200 c 0
 472 -200 593 -140 636 -65 c 1
 637 -59 638 -53 638 -45 c 0
 638 16 600 143 579 208 c 0
 574 224 578 232 588 241 c 2
 636 282 l 1
 654 300 668 234 673 220 c 0
 691 166 721 136 753 119 c 1
 885 261 1005 441 1142 441 c 0
 1285 441 1343 313 1343 245 c 2
 1343 244 l 2
 1343 80 1225 0 1019 -0 c 2
 842 -0 l 1
 799 1 751 12 712 32 c 1
 713 25 713 18 713 11 c 0
 713 4 713 -3 712 -9 c 0
 700 -170 551 -301 333 -301 c 0
 195 -301 64 -225 64 -30 c 0
815 100 m 1
 1018 100 l 2
 1172 100 1252 146 1268 180 c 0
 1269 184 1269 187 1269 192 c 0
 1269 242 1209 340 1117 340 c 0
 1021 340 933 230 815 100 c 1
EndSplineSet
Colour: ffda6b
EndChar

StartChar: _.sad.fina
Encoding: 65553 -1 17
GlifName: _.sad.fina
Width: 1476
VWidth: 1304
GlyphClass: 1
UnlinkRmOvrlpSave: 1
Flags: HMW
LayerCount: 2
Fore
SplineSet
64 -30 m 0
 64 38 80 121 118 220 c 0
 122 230 130 235 139 231 c 2
 168 220 l 2
 175 218 181 207 176 196 c 0
 146 122 133 58 133 6 c 0
 133 -137 229 -200 339 -200 c 0
 472 -200 593 -140 636 -65 c 1
 637 -59 638 -53 638 -45 c 0
 638 16 600 143 579 208 c 0
 574 224 578 232 588 241 c 2
 636 282 l 1
 654 300 668 234 673 220 c 0
 691 166 721 136 753 119 c 1
 885 261 1005 441 1142 441 c 0
 1285 441 1343 313 1343 245 c 2
 1343 244 l 2
 1343 207 1336 173 1325 145 c 1
 1330 133 1340 123 1355 118 c 0
 1393 107 1450 100 1476 100 c 1
 1476 -0 l 1
 1408 0 1319 14 1273 71 c 1
 1218 23 1131 0 1019 -0 c 2
 842 -0 l 1
 799 1 751 12 712 32 c 1
 713 25 713 18 713 11 c 0
 713 4 713 -3 712 -9 c 0
 700 -170 551 -301 333 -301 c 0
 195 -301 64 -225 64 -30 c 0
815 100 m 1
 1018 100 l 2
 1172 100 1252 146 1268 180 c 0
 1269 184 1269 187 1269 192 c 0
 1269 242 1209 340 1117 340 c 0
 1021 340 933 230 815 100 c 1
EndSplineSet
Colour: ffda6b
EndChar

StartChar: _.sad.medi
Encoding: 65554 -1 18
GlifName: _.sad.medi
Width: 1023
VWidth: 1304
GlyphClass: 1
UnlinkRmOvrlpSave: 1
Flags: HMW
LayerCount: 2
Fore
SplineSet
-50 50 m 0
 -49 76 -26 100 0 100 c 0
 66 100 116 115 153 132 c 1
 139 154 128 179 116 207 c 0
 111 218 110 225 122 239 c 2
 162 280 l 2
 171 290 178 285 183 273 c 0
 205 213 238 151 301 120 c 1
 431 260 552 441 689 441 c 0
 833 441 890 313 891 245 c 1
 891 244 l 2
 891 207 884 174 873 146 c 1
 877 132 888 123 904 118 c 0
 941 107 997 100 1023 100 c 1
 1023 -0 l 1
 957 0 866 14 820 72 c 1
 765 23 679 0 567 -0 c 2
 389 -0 l 1
 305 1 248 22 202 68 c 1
 170 34 105 0 0 -0 c 0
 -26 0 -50 24 -50 50 c 0
362 100 m 1
 564 100 l 2
 718 100 799 146 815 180 c 0
 816 183 817 187 817 191 c 0
 817 241 757 340 664 340 c 0
 569 340 480 230 362 100 c 1
EndSplineSet
Colour: ffda6b
EndChar

StartChar: _.sad.init
Encoding: 65555 -1 19
GlifName: _.sad.init
Width: 955
VWidth: 1304
GlyphClass: 1
UnlinkRmOvrlpSave: 1
Flags: HMW
LayerCount: 2
Fore
SplineSet
-50 50 m 0
 -49 76 -26 100 0 100 c 0
 66 100 116 115 153 132 c 1
 139 154 128 179 116 207 c 0
 111 218 110 225 122 239 c 2
 162 280 l 2
 171 290 178 285 183 273 c 0
 205 213 238 151 301 120 c 1
 431 260 552 441 689 441 c 0
 833 441 890 313 891 245 c 1
 891 244 l 2
 891 80 773 0 567 -0 c 2
 389 -0 l 1
 305 1 248 22 202 68 c 1
 170 34 105 0 0 -0 c 0
 -26 0 -50 24 -50 50 c 0
362 100 m 1
 564 100 l 2
 718 100 799 146 815 180 c 0
 816 183 817 187 817 191 c 0
 817 241 757 340 664 340 c 0
 569 340 480 230 362 100 c 1
EndSplineSet
Colour: ffda6b
EndChar

StartChar: _.ta.isol
Encoding: 65556 -1 20
GlifName: _.ta.isol
Width: 918
VWidth: 1304
GlyphClass: 1
UnlinkRmOvrlpSave: 1
Flags: HMW
LayerCount: 2
Fore
SplineSet
64 97 m 0
 64 112 70 123 85 123 c 0
 90 123 96 122 103 119 c 0
 139 107 165 102 227 101 c 0
 252 103 265 118 264 141 c 2
 248 700 l 2
 248 707 248 713 248 718 c 0
 248 752 255 762 324 800 c 0
 331 800 337 798 337 789 c 2
 337 202 l 1
 440 321 541 441 652 441 c 0
 796 441 853 313 854 245 c 1
 854 244 l 2
 854 80 736 0 530 -0 c 2
 261 -0 l 2
 248 0 238 0 227 -0 c 0
 177 0 147 2 104 21 c 0
 83 30 64 70 64 97 c 0
323 100 m 1
 527 100 l 2
 681 100 763 146 779 180 c 0
 780 183 780 187 780 191 c 0
 780 241 720 340 627 340 c 0
 531 340 442 232 323 100 c 1
EndSplineSet
Colour: ffda6b
EndChar

StartChar: _.ta.fina
Encoding: 65557 -1 21
GlifName: _.ta.fina
Width: 987
VWidth: 1304
GlyphClass: 1
UnlinkRmOvrlpSave: 1
Flags: HMW
LayerCount: 2
Fore
SplineSet
64 97 m 0
 64 112 70 123 85 123 c 0
 90 123 96 122 103 119 c 0
 139 107 165 102 227 101 c 0
 252 103 265 118 264 141 c 2
 248 700 l 2
 248 707 248 713 248 718 c 0
 248 752 255 762 324 800 c 0
 331 800 337 798 337 789 c 2
 337 202 l 1
 440 321 541 441 652 441 c 0
 796 441 853 313 854 245 c 1
 854 244 l 2
 854 207 847 174 836 146 c 1
 840 132 851 123 867 118 c 0
 904 107 961 100 987 100 c 1
 987 -0 l 1
 921 0 829 14 783 72 c 1
 728 23 642 0 530 -0 c 2
 261 -0 l 2
 248 0 238 0 227 -0 c 0
 177 0 147 2 104 21 c 0
 83 30 64 70 64 97 c 0
323 100 m 1
 527 100 l 2
 681 100 763 146 779 180 c 0
 780 183 780 187 780 191 c 0
 780 241 720 340 627 340 c 0
 531 340 442 232 323 100 c 1
EndSplineSet
Colour: ffda6b
EndChar

StartChar: _.ta.medi
Encoding: 65558 -1 22
GlifName: _.ta.medi
Width: 823
VWidth: 1304
GlyphClass: 1
UnlinkRmOvrlpSave: 1
Flags: HMW
LayerCount: 2
Fore
SplineSet
-50 50 m 0
 -50 76 -26 100 0 100 c 2
 52 100 l 2
 84 100 101 114 100 141 c 2
 84 700 l 2
 84 707 84 713 84 718 c 0
 84 752 92 762 161 800 c 0
 168 800 173 798 173 789 c 2
 173 202 l 1
 276 321 377 441 488 441 c 0
 632 441 689 313 690 245 c 1
 690 244 l 2
 690 207 684 174 673 146 c 1
 677 132 687 123 703 118 c 0
 740 107 797 100 823 100 c 1
 823 -0 l 1
 757 0 666 14 620 72 c 1
 565 23 478 0 366 -0 c 2
 0 -0 l 2
 -26 0 -50 24 -50 50 c 0
159 100 m 1
 364 100 l 2
 518 100 599 146 615 180 c 0
 616 183 616 187 616 191 c 0
 616 241 556 340 463 340 c 0
 367 340 278 232 159 100 c 1
EndSplineSet
Colour: ffda6b
EndChar

StartChar: _.ta.init
Encoding: 65559 -1 23
GlifName: _.ta.init
Width: 754
VWidth: 1304
GlyphClass: 1
UnlinkRmOvrlpSave: 1
Flags: HMW
LayerCount: 2
Fore
SplineSet
-50 50 m 0
 -50 76 -26 100 0 100 c 2
 52 100 l 2
 84 100 101 114 100 141 c 2
 84 700 l 2
 84 707 84 713 84 718 c 0
 84 752 92 762 161 800 c 0
 168 800 173 798 173 789 c 2
 173 202 l 1
 276 321 377 441 488 441 c 0
 632 441 689 313 690 245 c 1
 690 244 l 2
 690 80 572 0 366 -0 c 2
 0 -0 l 2
 -26 0 -50 24 -50 50 c 0
159 100 m 1
 364 100 l 2
 518 100 599 146 615 180 c 0
 616 183 616 187 616 191 c 0
 616 241 556 340 463 340 c 0
 367 340 278 232 159 100 c 1
EndSplineSet
Colour: ffda6b
EndChar

StartChar: _.ein.isol
Encoding: 65560 -1 24
GlifName: _.ein.isol
Width: 692
VWidth: 1304
GlyphClass: 1
UnlinkRmOvrlpSave: 1
Flags: HMW
LayerCount: 2
Fore
SplineSet
64 -139 m 0
 64 -120 66 -100 69 -79 c 0
 87 38 163 153 289 229 c 1
 254 281 230 334 230 393 c 0
 230 420 235 449 246 480 c 0
 280 575 361 614 442 614 c 0
 497 614 552 596 592 566 c 0
 602 559 599 546 598 541 c 2
 589 516 l 2
 585 506 577 504 568 506 c 0
 541 514 510 519 477 519 c 0
 409 519 338 499 309 454 c 1
 306 445 305 435 305 425 c 0
 305 377 332 317 380 272 c 1
 446 294 556 325 613 331 c 0
 630 332 628 317 626 308 c 2
 616 269 l 2
 614 260 614 252 592 246 c 0
 540 231 478 216 397 178 c 1
 397 177 l 1
 257 123 152 24 130 -74 c 0
 128 -85 127 -96 127 -107 c 0
 127 -204 222 -300 458 -300 c 0
 502 -300 552 -296 607 -289 c 0
 621 -288 623 -289 619 -305 c 2
 607 -370 l 2
 605 -381 602 -388 581 -389 c 0
 526 -396 475 -400 428 -400 c 0
 187 -400 64 -309 64 -139 c 0
EndSplineSet
Colour: ffda6b
EndChar

StartChar: _.ein.fina
Encoding: 65561 -1 25
GlifName: _.ein.fina
Width: 715
VWidth: 1304
GlyphClass: 1
UnlinkRmOvrlpSave: 1
Flags: HMW
LayerCount: 2
Fore
SplineSet
64 432 m 1
 80 436 226 498 368 498 c 0
 495 498 610 479 610 381 c 0
 610 358 604 330 590 298 c 1
 590 301 l 1
 562 251 505 207 435 170 c 1
 473 122 522 100 665 100 c 2
 715 100 l 1
 715 -0 l 1
 665 -0 l 2
 485 0 420 58 368 136 c 1
 272 79 203 4 186 -74 c 0
 184 -85 182 -96 182 -107 c 0
 182 -204 278 -300 514 -300 c 0
 558 -300 607 -296 662 -289 c 0
 676 -288 679 -289 675 -305 c 2
 662 -370 l 2
 660 -381 657 -388 636 -389 c 0
 581 -396 530 -400 483 -400 c 0
 242 -400 120 -309 120 -139 c 0
 120 -120 121 -100 124 -79 c 0
 141 29 208 137 319 213 c 1
 264 292 192 345 114 346 c 1
 93 339 79 333 75 332 c 1
 64 432 l 1
244 383 m 1
 296 351 346 305 383 248 c 1
 454 279 516 315 553 357 c 1
 511 387 439 398 379 398 c 0
 331 398 287 391 244 383 c 1
EndSplineSet
Colour: ffda6b
EndChar

StartChar: _.ein.medi
Encoding: 65562 -1 26
GlifName: _.ein.medi
Width: 689
VWidth: 1304
GlyphClass: 1
UnlinkRmOvrlpSave: 1
Flags: HMW
LayerCount: 2
Fore
SplineSet
-50 50 m 0
 -50 76 -26 100 0 100 c 0
 70 100 179 121 281 155 c 1
 217 223 169 287 85 287 c 1
 68 281 57 275 55 274 c 1
 44 374 l 1
 60 379 206 441 346 441 c 0
 473 441 588 421 588 323 c 0
 588 300 582 273 568 240 c 1
 568 245 l 1
 545 203 501 165 447 132 c 1
 497 112 559 100 638 100 c 2
 689 100 l 1
 689 -0 l 1
 638 -0 l 2
 506 0 421 38 357 86 c 1
 234 32 90 0 0 -0 c 0
 -26 0 -50 24 -50 50 c 0
200 320 m 1
 249 281 292 228 354 182 c 1
 429 214 494 254 532 300 c 1
 488 332 411 341 348 341 c 0
 298 340 246 331 200 320 c 1
EndSplineSet
Colour: ffda6b
EndChar

StartChar: _.ein.init
Encoding: 65563 -1 27
GlifName: _.ein.init
Width: 569
VWidth: 1304
GlyphClass: 1
UnlinkRmOvrlpSave: 1
Flags: HMW
LayerCount: 2
Fore
SplineSet
-50 50 m 0
 -50 75 -26 100 -1 100 c 0
 57 100 109 103 153 109 c 1
 126 155 108 201 108 253 c 0
 108 280 113 309 124 340 c 0
 158 435 238 473 319 473 c 0
 374 473 430 456 470 426 c 0
 480 419 477 406 476 401 c 2
 467 375 l 2
 463 365 455 363 446 365 c 0
 419 373 388 378 355 378 c 0
 287 378 215 359 186 314 c 1
 183 305 182 295 182 284 c 0
 182 235 211 173 261 129 c 1
 364 152 430 185 490 191 c 0
 507 192 506 176 504 167 c 2
 494 129 l 2
 492 122 492 112 470 106 c 0
 378 80 263 0 0 -0 c 1
 -25 1 -50 24 -50 50 c 0
EndSplineSet
Colour: ffda6b
EndChar

StartChar: _.feh.isol
Encoding: 65564 -1 28
GlifName: _.feh.isol
Width: 933
VWidth: 1304
GlyphClass: 1
UnlinkRmOvrlpSave: 1
Flags: HMW
LayerCount: 2
Fore
SplineSet
530 333 m 0
 530 480 612 580 695 580 c 0
 814 580 869 404 869 246 c 0
 869 221 868 196 865 173 c 0
 861 116 840 96 753 65 c 0
 647 31 546 -1 358 -1 c 0
 199 -1 64 47 64 217 c 0
 64 267 76 327 102 400 c 0
 104 406 113 409 118 407 c 2
 153 393 l 2
 158 391 163 384 159 373 c 0
 142 328 135 289 135 256 c 0
 135 138 238 100 369 100 c 0
 371 100 372 100 374 100 c 0
 539 100 680 134 788 171 c 1
 789 181 789 191 789 200 c 0
 789 209 789 219 788 228 c 1
 756 210 723 200 679 200 c 0
 576 200 530 269 530 333 c 0
681 480 m 0
 632 480 592 421 592 364 c 0
 592 308 642 300 679 300 c 0
 713 300 747 310 779 326 c 1
 761 421 720 479 681 480 c 0
EndSplineSet
Colour: ffda6b
EndChar

StartChar: _.feh.fina
Encoding: 65565 -1 29
GlifName: _.feh.fina
Width: 1033
VWidth: 1304
GlyphClass: 1
UnlinkRmOvrlpSave: 1
Flags: HMW
LayerCount: 2
Fore
SplineSet
64 217 m 0
 64 267 76 327 102 400 c 0
 104 406 113 409 118 407 c 2
 153 393 l 2
 158 391 163 384 159 373 c 0
 142 328 135 289 135 256 c 0
 135 138 238 100 369 100 c 0
 371 100 372 100 374 100 c 0
 477 100 571 113 653 133 c 1
 627 161 609 190 600 220 c 0
 598 227 597 236 597 246 c 0
 597 326 664 480 768 480 c 0
 859 480 919 337 919 279 c 0
 919 220 892 167 845 122 c 1
 893 107 945 100 999 100 c 2
 1033 100 l 1
 1033 -0 l 1
 1003 -0 l 2
 902 0 813 26 745 63 c 1
 642 29 541 -1 358 -1 c 0
 199 -1 64 47 64 217 c 0
658 253 m 1
 678 217 712 186 754 161 c 1
 819 194 859 231 859 255 c 0
 859 295 799 379 759 379 c 0
 758 379 l 0
 719 379 659 300 658 253 c 1
EndSplineSet
Colour: ffda6b
EndChar

StartChar: _.feh.medi
Encoding: 65566 -1 30
GlifName: _.feh.medi
Width: 524
VWidth: 1304
GlyphClass: 1
UnlinkRmOvrlpSave: 1
Flags: HMW
LayerCount: 2
Fore
SplineSet
-50 50 m 0
 -49 75 -27 99 -2 100 c 0
 56 100 109 108 155 121 c 1
 122 152 99 187 90 220 c 0
 88 227 88 236 88 245 c 0
 88 325 153 480 258 480 c 0
 349 480 409 337 409 279 c 0
 409 221 383 166 338 121 c 1
 385 107 437 100 489 100 c 2
 524 100 l 1
 524 -0 l 1
 493 -0 l 2
 398 0 314 22 248 56 c 1
 181 21 95 0 0 -0 c 1
 -23 1 -50 24 -50 50 c 0
148 253 m 1
 169 216 205 184 249 159 c 1
 311 192 349 232 349 255 c 0
 349 295 289 379 249 379 c 0
 248 379 l 0
 210 379 149 300 148 253 c 1
EndSplineSet
Colour: ffda6b
EndChar

StartChar: _.feh.init
Encoding: 65567 -1 31
GlifName: _.feh.init
Width: 428
VWidth: 1304
GlyphClass: 1
UnlinkRmOvrlpSave: 1
Flags: HMW
LayerCount: 2
Fore
SplineSet
25 333 m 0
 25 480 107 580 190 580 c 0
 309 580 364 404 364 246 c 0
 364 221 363 196 360 173 c 1
 356 46 234 0 120 -0 c 2
 0 -0 l 2
 -25 0 -50 24 -50 50 c 0
 -49 76 -25 100 0 100 c 2
 120 100 l 2
 184 100 234 110 281 136 c 1
 283 159 284 182 284 204 c 0
 284 212 284 220 284 228 c 1
 252 210 218 200 174 200 c 0
 71 200 25 269 25 333 c 0
177 480 m 0
 128 480 88 421 88 364 c 0
 88 308 137 300 174 300 c 0
 208 300 242 310 274 326 c 1
 256 421 216 479 177 480 c 0
EndSplineSet
Colour: ffda6b
EndChar

StartChar: _.qaf.isol
Encoding: 65568 -1 32
GlifName: _.qaf.isol
Width: 769
VWidth: 1304
GlyphClass: 1
UnlinkRmOvrlpSave: 1
Flags: HMW
LayerCount: 2
Fore
SplineSet
366 143 m 0
 366 289 448 390 521 390 c 0
 656 390 705 223 705 69 c 0
 705 42 704 16 701 -9 c 0
 701 -10 700 -16 699 -16 c 0
 674 -165 498 -300 317 -301 c 0
 184 -301 64 -241 64 -57 c 0
 64 15 83 106 126 220 c 0
 130 230 138 235 147 231 c 2
 176 220 l 2
 183 218 189 207 185 196 c 0
 150 111 134 39 134 -19 c 0
 134 -139 203 -201 315 -201 c 0
 420 -201 555 -140 624 -65 c 1
 627 -40 629 -17 629 6 c 0
 629 17 628 28 628 39 c 1
 595 19 561 10 514 10 c 0
 412 10 366 78 366 143 c 0
515 289 m 0
 478 289 428 230 428 173 c 0
 428 118 478 109 514 109 c 0
 550 109 586 121 618 138 c 1
 602 234 559 289 516 289 c 0
 515 289 l 0
EndSplineSet
Colour: ffda6b
EndChar

StartChar: _.qaf.fina
Encoding: 65569 -1 33
GlifName: _.qaf.fina
Width: 832
VWidth: 1304
GlyphClass: 1
UnlinkRmOvrlpSave: 1
Flags: HMW
LayerCount: 2
Fore
SplineSet
366 141 m 0
 366 289 446 390 531 390 c 0
 639 390 693 245 703 100 c 1
 832 100 l 1
 832 -0 l 1
 702 -0 l 1
 702 -9 l 2
 702 -11 700 -14 699 -16 c 0
 674 -165 498 -300 317 -301 c 0
 184 -301 64 -241 64 -57 c 0
 64 15 83 106 126 220 c 0
 130 230 138 235 147 231 c 2
 176 220 l 2
 183 218 189 207 185 196 c 0
 150 111 134 39 134 -19 c 0
 134 -139 203 -201 315 -201 c 0
 418 -201 550 -143 621 -69 c 1
 622 -46 624 -22 624 -0 c 1
 516 0 366 8 366 141 c 0
514 289 m 0
 468 289 429 235 429 181 c 0
 429 107 540 100 619 100 c 1
 604 217 560 289 516 289 c 0
 515 289 515 289 514 289 c 0
EndSplineSet
Colour: ffda6b
EndChar

StartChar: _.kaf.isol.fa
Encoding: 65570 -1 34
GlifName: _.kaf.isol.fa
Width: 1058
VWidth: 1304
GlyphClass: 1
UnlinkRmOvrlpSave: 1
Flags: HMW
LayerCount: 2
Fore
SplineSet
64 217 m 0
 64 267 76 327 102 400 c 0
 104 406 113 409 118 407 c 2
 153 393 l 2
 158 391 163 384 159 373 c 0
 142 328 135 289 135 256 c 0
 135 138 238 100 369 100 c 0
 371 100 372 100 374 100 c 0
 547 100 689 138 803 176 c 1
 789 278 700 399 568 485 c 0
 557 493 550 505 550 516 c 0
 550 524 554 531 556 538 c 2
 574 594 l 2
 580 611 593 626 609 633 c 2
 978 800 l 2
 980 801 982 801 984 801 c 0
 991 801 994 793 994 782 c 0
 994 753 974 702 952 692 c 2
 643 553 l 1
 778 448 865 312 865 200 c 0
 865 121 853 99 753 65 c 0
 647 31 546 -1 358 -1 c 0
 199 -1 64 47 64 217 c 0
EndSplineSet
Colour: ffda6b
EndChar

StartChar: _.kaf.isol.ar
Encoding: 65571 -1 35
GlifName: _.kaf.isol.ar
Width: 929
VWidth: 1304
GlyphClass: 1
UnlinkRmOvrlpSave: 1
Flags: HMW
LayerCount: 2
Fore
SplineSet
64 217 m 0
 64 267 76 327 102 400 c 0
 104 406 113 409 118 407 c 2
 153 393 l 2
 158 391 163 384 159 373 c 0
 142 328 135 289 135 256 c 0
 135 138 238 100 369 100 c 0
 371 100 372 100 374 100 c 0
 540 100 682 134 792 172 c 1
 776 700 l 2
 776 707 776 713 776 718 c 0
 776 752 784 762 853 800 c 0
 860 800 865 798 865 789 c 2
 865 200 l 2
 865 121 853 99 753 65 c 0
 647 31 546 -1 358 -1 c 0
 199 -1 64 47 64 217 c 0
EndSplineSet
Colour: ffda6b
EndChar

StartChar: _.kaf.fina.fa
Encoding: 65572 -1 36
GlifName: _.kaf.fina.fa
Width: 1080
VWidth: 1304
GlyphClass: 1
UnlinkRmOvrlpSave: 1
Flags: HMW
LayerCount: 2
Fore
SplineSet
64 217 m 0
 64 267 76 327 102 400 c 0
 104 406 113 409 118 407 c 2
 153 393 l 2
 158 391 163 384 159 373 c 0
 142 328 135 289 135 256 c 0
 135 138 238 100 369 100 c 0
 371 100 372 100 374 100 c 0
 547 100 689 138 803 176 c 1
 793 247 750 316 704 368 c 0
 667 410 621 451 568 485 c 0
 557 493 550 505 550 516 c 0
 550 524 554 531 556 538 c 2
 574 594 l 2
 580 611 593 626 609 633 c 2
 978 800 l 2
 980 801 982 801 984 801 c 0
 991 801 994 793 994 782 c 0
 994 753 974 702 952 692 c 2
 643 553 l 1
 708 503 763 443 801 384 c 0
 821 359 836 325 848 294 c 0
 889 193 915 100 1080 100 c 1
 1080 -0 l 1
 947 0 893 45 849 119 c 1
 833 98 805 83 753 65 c 0
 647 31 546 -1 358 -1 c 0
 199 -1 64 47 64 217 c 0
EndSplineSet
Colour: ffda6b
EndChar

StartChar: _.kaf.fina.ar
Encoding: 65573 -1 37
GlifName: _.kaf.fina.ar
Width: 1058
VWidth: 1304
GlyphClass: 1
UnlinkRmOvrlpSave: 1
Flags: HMW
LayerCount: 2
Fore
SplineSet
64 217 m 0
 64 267 76 327 102 400 c 0
 104 406 113 409 118 407 c 2
 153 393 l 2
 158 391 163 384 159 373 c 0
 142 328 135 289 135 256 c 0
 135 138 238 100 369 100 c 0
 371 100 372 100 374 100 c 0
 540 100 682 134 792 172 c 1
 776 700 l 2
 776 707 776 713 776 718 c 0
 776 752 784 762 853 800 c 0
 860 800 865 798 865 789 c 2
 865 244 l 1
 901 160 950 101 1058 100 c 1
 1058 -0 l 1
 944 0 885 33 838 107 c 1
 821 92 794 80 753 65 c 0
 647 31 546 -1 358 -1 c 0
 199 -1 64 47 64 217 c 0
EndSplineSet
Colour: ffda6b
EndChar

StartChar: _.kaf.medi
Encoding: 65574 -1 38
GlifName: _.kaf.medi
Width: 536
VWidth: 1304
GlyphClass: 1
UnlinkRmOvrlpSave: 1
Flags: HMW
LayerCount: 2
Fore
SplineSet
-50 50 m 0
 -50 75 -26 100 -1 100 c 2
 89 100 l 2
 149 100 253 124 260 160 c 1
 254 265 162 394 24 485 c 0
 13 493 6 505 6 516 c 0
 6 524 10 531 12 538 c 2
 30 594 l 2
 36 611 48 626 64 633 c 2
 434 800 l 2
 436 801 438 801 440 801 c 0
 447 801 450 793 450 782 c 0
 450 753 430 702 408 692 c 2
 99 553 l 1
 183 488 266 396 303 294 c 0
 344 193 371 100 536 100 c 1
 536 -0 l 1
 406 0 350 45 306 116 c 1
 273 34 185 0 80 -0 c 2
 -1 -0 l 1
 -26 1 -50 24 -50 50 c 0
EndSplineSet
Colour: ffda6b
EndChar

StartChar: _.kaf.init
Encoding: 65575 -1 39
GlifName: _.kaf.init
Width: 513
VWidth: 1304
GlyphClass: 1
UnlinkRmOvrlpSave: 1
Flags: HMW
LayerCount: 2
Fore
SplineSet
-50 50 m 0
 -50 75 -26 100 -1 100 c 2
 89 100 l 2
 149 100 253 124 260 160 c 1
 254 265 162 394 24 485 c 0
 13 493 6 505 6 516 c 0
 6 519 7 522 8 525 c 0
 15 547 22 570 28 593 c 1
 34 609 47 626 63 633 c 2
 433 800 l 2
 435 801 436 801 438 801 c 0
 445 801 449 793 449 782 c 0
 449 753 429 702 407 692 c 2
 98 553 l 1
 235 448 321 311 321 198 c 0
 320 54 213 0 80 -0 c 2
 -1 -0 l 1
 -26 1 -50 24 -50 50 c 0
EndSplineSet
Colour: ffda6b
EndChar

StartChar: _.kaf_hamze.isol.ar
Encoding: 65576 -1 40
GlifName: _.kaf_hamze.isol.ar
Width: 299
VWidth: 1304
GlyphClass: 1
UnlinkRmOvrlpSave: 1
Flags: HMW
LayerCount: 2
Fore
SplineSet
64 -20 m 1
 64 22 l 1
 69 22 75 21 80 21 c 0
 138 21 192 42 192 63 c 0
 192 73 178 84 146 92 c 0
 105 103 86 137 86 172 c 0
 86 215 116 259 173 259 c 0
 187 259 203 256 220 250 c 1
 220 205 l 1
 209 211 198 214 187 214 c 0
 155 214 127 193 127 171 c 0
 127 156 141 140 174 130 c 0
 213 118 235 93 235 66 c 0
 235 25 184 -20 70 -20 c 0
 68 -20 66 -20 64 -20 c 1
EndSplineSet
Colour: ffda6b
EndChar

StartChar: _.ghaf.isol
Encoding: 65577 -1 41
GlifName: _.ghaf.isol
Width: 1058
VWidth: 0
GlyphClass: 1
UnlinkRmOvrlpSave: 1
Flags: HMW
LayerCount: 2
Fore
SplineSet
64 217 m 0
 64 267 76 327 102 400 c 0
 104 406 113 409 118 407 c 2
 153 393 l 2
 158 391 163 384 159 373 c 0
 142 328 135 289 135 256 c 0
 135 138 238 100 369 100 c 0
 371 100 372 100 374 100 c 0
 547 100 689 138 803 176 c 1
 789 278 700 399 568 485 c 0
 557 493 550 505 550 516 c 0
 550 524 554 531 556 538 c 2
 574 594 l 2
 580 611 593 626 609 633 c 2
 978 800 l 2
 980 801 982 801 984 801 c 0
 991 801 994 793 994 782 c 0
 994 753 974 702 952 692 c 2
 643 553 l 1
 778 448 865 312 865 200 c 0
 865 121 853 99 753 65 c 0
 647 31 546 -1 358 -1 c 0
 199 -1 64 47 64 217 c 0
602 707 m 0
 602 723 614 752 626 758 c 2
 905 884 l 2
 906 884 907 884 908 884 c 0
 912 884 914 879 914 873 c 0
 914 858 904 832 893 826 c 2
 611 698 l 2
 610 697 609 697 608 697 c 0
 604 697 602 701 602 707 c 0
EndSplineSet
Colour: ffda6b
EndChar

StartChar: _.ghaf.fina
Encoding: 65578 -1 42
GlifName: _.ghaf.fina
Width: 1080
VWidth: 0
GlyphClass: 1
Flags: HMW
LayerCount: 2
Fore
SplineSet
64 217 m 0
 64 267 76 327 102 400 c 0
 104 406 113 409 118 407 c 2
 153 393 l 2
 158 391 163 384 159 373 c 0
 142 328 135 289 135 256 c 0
 135 138 238 100 369 100 c 0
 371 100 372 100 374 100 c 0
 547 100 689 138 803 176 c 1
 789 278 700 399 568 485 c 0
 557 493 550 505 550 516 c 0
 550 524 554 531 556 538 c 2
 574 594 l 2
 580 611 593 626 609 633 c 2
 978 800 l 2
 980 801 982 801 984 801 c 0
 991 801 994 793 994 782 c 0
 994 753 974 702 952 692 c 2
 643 553 l 1
 708 503 763 444 801 386 c 0
 805 379 809 372 813 365 c 0
 881 247 875 100 1080 100 c 1
 1080 -0 l 1
 947 0 893 45 849 119 c 1
 833 98 805 83 753 65 c 0
 647 31 546 -1 358 -1 c 0
 199 -1 64 47 64 217 c 0
602 707 m 0
 602 723 614 752 626 758 c 2
 905 884 l 2
 906 884 907 884 908 884 c 0
 912 884 914 879 914 873 c 0
 914 858 904 832 893 826 c 2
 611 698 l 2
 610 697 609 697 608 697 c 0
 604 697 602 701 602 707 c 0
EndSplineSet
Colour: ffda6b
EndChar

StartChar: _.lam.isol
Encoding: 65580 -1 44
GlifName: _.lam.isol
Width: 761
VWidth: 1304
GlyphClass: 1
UnlinkRmOvrlpSave: 1
Flags: HMW
LayerCount: 2
Fore
SplineSet
64 -42 m 0
 64 28 81 115 121 220 c 0
 125 230 134 235 143 231 c 2
 172 220 l 2
 179 218 185 207 180 196 c 0
 147 115 133 48 133 -7 c 0
 133 -140 216 -200 322 -200 c 0
 456 -200 590 -131 633 -56 c 1
 608 700 l 2
 608 707 608 713 608 718 c 0
 608 752 615 762 684 800 c 0
 691 800 697 798 697 789 c 2
 697 -9 l 1
 683 -170 536 -301 318 -301 c 0
 183 -301 64 -228 64 -42 c 0
EndSplineSet
Colour: ffda6b
EndChar

StartChar: _.lam.fina
Encoding: 65581 -1 45
GlifName: _.lam.fina
Width: 851
VWidth: 1304
GlyphClass: 1
UnlinkRmOvrlpSave: 1
Flags: HMW
LayerCount: 2
Fore
SplineSet
64 -42 m 0
 64 28 81 115 121 220 c 0
 125 230 134 235 143 231 c 2
 172 220 l 2
 179 218 185 207 180 196 c 0
 147 115 133 48 133 -7 c 0
 133 -140 216 -200 322 -200 c 0
 456 -200 590 -131 633 -56 c 1
 608 700 l 2
 608 707 608 713 608 718 c 0
 608 752 615 762 684 800 c 0
 691 800 697 798 697 789 c 2
 697 160 l 2
 697 140 709 124 730 118 c 0
 767 107 824 100 851 100 c 1
 851 -0 l 1
 803 0 744 7 697 32 c 1
 697 -16 l 1
 681 -174 532 -301 318 -301 c 0
 183 -301 64 -228 64 -42 c 0
EndSplineSet
Colour: ffda6b
EndChar

StartChar: _.lam.medi
Encoding: 65582 -1 46
GlifName: _.lam.medi
Width: 417
VWidth: 1304
GlyphClass: 1
UnlinkRmOvrlpSave: 1
Flags: HMW
LayerCount: 2
Fore
SplineSet
32 100 m 0
 103 100 159 114 192 140 c 1
 175 700 l 2
 175 707 175 713 175 718 c 0
 175 752 183 762 252 800 c 0
 259 800 264 798 264 789 c 2
 264 160 l 2
 264 140 275 124 296 118 c 0
 333 107 390 100 417 100 c 1
 417 -0 l 1
 353 0 268 14 220 64 c 1
 184 23 124 0 29 -0 c 2
 0 -0 l 2
 -25 0 -50 24 -50 50 c 0
 -50 76 -25 100 0 100 c 0
 11 100 21 100 32 100 c 0
EndSplineSet
Colour: ffda6b
EndChar

StartChar: _.lam.init
Encoding: 65583 -1 47
GlifName: _.lam.init
Width: 328
VWidth: 1304
GlyphClass: 1
UnlinkRmOvrlpSave: 1
Flags: HMW
LayerCount: 2
Fore
SplineSet
-50 49 m 0
 -50 76 -27 100 -1 100 c 2
 25 100 l 2
 82 100 139 111 188 138 c 1
 193 141 l 1
 157 700 l 2
 157 707 156 713 156 718 c 0
 156 752 164 762 232 800 c 1
 241 800 245 798 245 789 c 2
 264 199 l 2
 264 192 263 183 262 173 c 0
 255 70 192 0 28 -0 c 0
 19 0 8 0 -1 -0 c 0
 -25 0 -50 24 -50 49 c 0
EndSplineSet
Colour: ffda6b
EndChar

StartChar: _.mim.isol
Encoding: 65584 -1 48
GlifName: _.mim.isol
Width: 655
VWidth: 1304
GlyphClass: 1
UnlinkRmOvrlpSave: 1
Flags: HMW
LayerCount: 2
Fore
SplineSet
64 69 m 0
 64 197 181 238 253 240 c 1
 236 268 l 1
 278 364 l 2
 304 426 343 449 385 449 c 0
 470 449 567 351 587 280 c 0
 590 271 591 260 590 249 c 0
 586 187 527 101 459 101 c 0
 458 101 l 0
 394 101 340 136 261 136 c 0
 260 136 258 136 257 136 c 0
 220 136 164 124 130 91 c 1
 184 -302 l 1
 184 -314 185 -324 185 -332 c 0
 185 -356 178 -369 118 -402 c 0
 111 -402 106 -399 106 -390 c 2
 65 48 l 2
 64 55 64 62 64 69 c 0
274 240 m 1
 359 236 426 200 469 200 c 0
 491 200 510 207 528 218 c 1
 499 271 418 352 361 352 c 0
 342 352 326 343 315 321 c 2
 274 240 l 1
EndSplineSet
Colour: ffda6b
EndChar

StartChar: _.mim.fina
Encoding: 65585 -1 49
GlifName: _.mim.fina
Width: 635
VWidth: 1304
GlyphClass: 1
UnlinkRmOvrlpSave: 1
Flags: HMW
LayerCount: 2
Fore
SplineSet
487 43 m 1
 479 -47 448 -105 377 -105 c 0
 315 -105 221 -48 221 103 c 0
 221 109 222 116 222 122 c 1
 184 107 154 90 129 70 c 1
 182 -320 l 2
 182 -323 183 -326 183 -328 c 0
 183 -359 154 -375 128 -393 c 0
 121 -398 116 -400 112 -400 c 0
 105 -400 102 -394 101 -383 c 2
 68 -22 l 1
 66 -6 64 9 64 23 c 0
 64 198 245 239 371 261 c 1
 391 303 l 2
 400 321 412 321 419 306 c 0
 428 287 436 273 444 256 c 0
 499 146 534 100 635 100 c 1
 635 -0 l 1
 570 0 523 16 487 43 c 1
384 -3 m 0
 416 -3 429 21 429 53 c 0
 429 78 421 109 404 144 c 1
 404 145 l 1
 399 152 395 159 390 168 c 1
 349 159 314 152 282 143 c 1
 280 35 344 -3 384 -3 c 0
EndSplineSet
Colour: ffda6b
EndChar

StartChar: _.mim.medi
Encoding: 65586 -1 50
GlifName: _.mim.medi
Width: 657
VWidth: 1304
GlyphClass: 1
UnlinkRmOvrlpSave: 1
Flags: HMW
LayerCount: 2
Fore
SplineSet
-50 50 m 0
 -50 76 -25 100 0 100 c 0
 160 100 171 209 231 300 c 0
 252 331 270 343 289 343 c 0
 372 343 450 100 657 100 c 1
 657 -0 l 1
 586 0 526 25 477 61 c 1
 426 -13 381 -41 336 -41 c 0
 282 -41 228 -1 157 56 c 1
 127 23 84 0 0 -0 c 0
 -25 0 -50 24 -50 50 c 0
206 139 m 1
 267 90 310 60 349 60 c 0
 375 60 399 73 426 103 c 1
 358 166 313 236 279 236 c 0
 271 236 265 233 258 225 c 0
 235 198 220 169 206 139 c 1
EndSplineSet
Colour: ffda6b
EndChar

StartChar: _.mim.init
Encoding: 65587 -1 51
GlifName: _.mim.init
Width: 562
VWidth: 1304
GlyphClass: 1
UnlinkRmOvrlpSave: 1
Flags: HMW
LayerCount: 2
Fore
SplineSet
-50 50 m 0
 -50 75 -26 100 -1 100 c 0
 83 100 119 118 152 172 c 0
 180 219 196 263 234 329 c 0
 256 367 285 383 316 383 c 0
 400 383 498 263 498 158 c 0
 498 153 498 148 498 143 c 2
 498 141 l 1
 497 131 495 123 493 113 c 0
 471 29 413 0 350 0 c 0
 279 0 202 37 164 70 c 1
 133 24 83 0 -1 -0 c 0
 -26 0 -50 24 -50 50 c 0
210 166 m 1
 264 123 327 101 385 101 c 0
 401 101 416 103 430 106 c 1
 411 192 336 271 290 271 c 0
 278 271 268 266 261 255 c 0
 241 224 226 193 210 166 c 1
EndSplineSet
Colour: ffda6b
EndChar

StartChar: _.nun.isol
Encoding: 65588 -1 52
GlifName: _.nun.isol
Width: 777
VWidth: 1305
GlyphClass: 1
UnlinkRmOvrlpSave: 1
Flags: HMW
LayerCount: 2
Fore
SplineSet
64 -30 m 0
 64 38 80 121 118 220 c 0
 122 230 130 235 139 231 c 2
 168 220 l 2
 175 218 181 207 176 196 c 0
 146 122 133 58 133 6 c 0
 133 -137 229 -200 339 -200 c 0
 472 -200 593 -140 636 -65 c 1
 637 -59 638 -53 638 -45 c 0
 638 16 600 143 579 208 c 0
 574 224 578 232 588 241 c 2
 636 282 l 2
 641 287 649 288 653 278 c 0
 681 199 713 83 713 9 c 0
 713 3 712 -3 712 -9 c 0
 700 -170 551 -301 333 -301 c 0
 195 -301 64 -225 64 -30 c 0
EndSplineSet
Colour: ffda6b
EndChar

StartChar: _.nun.fina
Encoding: 65589 -1 53
GlifName: _.nun.fina
Width: 866
VWidth: 1413
GlyphClass: 1
UnlinkRmOvrlpSave: 1
Flags: HMW
LayerCount: 2
Fore
SplineSet
64 -30 m 0
 64 38 80 121 118 220 c 0
 122 230 130 235 139 231 c 2
 168 220 l 2
 175 218 181 207 176 196 c 0
 146 122 133 58 133 6 c 0
 133 -137 229 -200 339 -200 c 0
 472 -200 593 -140 636 -65 c 1
 637 -59 638 -53 638 -45 c 0
 638 16 600 143 579 208 c 0
 574 224 578 232 588 241 c 2
 636 282 l 1
 653 299 663 252 666 242 c 2
 672 223 l 1
 715 100 807 100 866 100 c 1
 866 -0 l 1
 818 0 759 7 712 32 c 1
 713 25 713 18 713 11 c 0
 713 4 713 -3 712 -9 c 0
 700 -170 551 -301 333 -301 c 0
 195 -301 64 -225 64 -30 c 0
EndSplineSet
Colour: ffda6b
EndChar

StartChar: _.vav.isol
Encoding: 65590 -1 54
GlifName: _.vav.isol
Width: 507
VWidth: 1304
GlyphClass: 1
UnlinkRmOvrlpSave: 1
Flags: HMW
LayerCount: 2
Fore
SplineSet
64 -241 m 0
 64 -238 66 -235 69 -232 c 1
 281 -173 354 -44 363 20 c 1
 331 6 298 0 262 -0 c 0
 159 0 111 61 111 140 c 0
 115 220 148 381 270 381 c 0
 384 381 442 201 443 56 c 1
 443 55 l 2
 443 -115 272 -283 160 -301 c 1
 137 -301 64 -265 64 -241 c 0
254 280 m 0
 212 280 175 208 175 155 c 0
 175 101 226 100 262 100 c 2
 267 100 l 2
 295 100 329 108 357 122 c 1
 342 208 303 280 254 280 c 0
EndSplineSet
Colour: ffda6b
EndChar

StartChar: _.vav.fina
Encoding: 65591 -1 55
GlifName: _.vav.fina
Width: 593
VWidth: 1304
GlyphClass: 1
UnlinkRmOvrlpSave: 1
Flags: HMW
LayerCount: 2
Fore
SplineSet
64 -241 m 0
 64 -238 66 -235 69 -232 c 1
 260 -178 338 -68 359 -0 c 1
 262 -0 l 2
 159 0 111 61 111 140 c 0
 115 220 148 381 270 381 c 0
 373 381 431 235 441 100 c 1
 593 100 l 1
 593 -0 l 1
 437 -0 l 1
 406 -149 260 -284 160 -301 c 1
 137 -301 64 -265 64 -241 c 0
254 280 m 0
 212 280 175 208 175 155 c 0
 175 101 226 100 262 100 c 2
 361 100 l 1
 349 196 308 280 254 280 c 0
EndSplineSet
Colour: ffda6b
EndChar

StartChar: _.dal.isol
Encoding: 65592 -1 56
GlifName: _.dal.isol
Width: 506
VWidth: 1304
GlyphClass: 1
UnlinkRmOvrlpSave: 1
Flags: HMW
LayerCount: 2
Fore
SplineSet
64 143 m 0
 64 166 63 189 87 189 c 0
 96 189 105 184 105 173 c 0
 107 123 148 104 201 104 c 0
 261 104 336 129 384 162 c 1
 367 242 315 322 198 409 c 0
 191 414 190 420 194 432 c 1
 229 491 l 2
 230 495 237 504 246 498 c 0
 376 409 436 290 441 209 c 0
 442 201 442 192 442 184 c 0
 442 149 434 114 414 81 c 0
 398 55 291 0 199 -0 c 0
 127 0 64 34 64 143 c 0
EndSplineSet
Colour: ffda6b
EndChar

StartChar: _.dal.fina
Encoding: 65593 -1 57
GlifName: _.dal.fina
Width: 605
VWidth: 1304
GlyphClass: 1
UnlinkRmOvrlpSave: 1
Flags: HMW
LayerCount: 2
Fore
SplineSet
64 143 m 0
 64 166 64 189 87 189 c 0
 96 189 105 183 105 173 c 0
 107 123 148 104 201 104 c 0
 258 104 328 126 376 156 c 1
 262 421 l 2
 258 430 263 442 272 449 c 2
 314 486 l 2
 325 496 335 491 339 481 c 2
 446 215 l 2
 473 149 508 100 605 100 c 1
 605 -0 l 1
 516 0 462 20 415 88 c 1
 415 81 l 1
 399 55 291 0 199 -0 c 0
 126 0 64 34 64 143 c 0
EndSplineSet
Colour: ffda6b
EndChar

StartChar: _.ree.isol
Encoding: 65594 -1 58
GlifName: _.ree.isol
Width: 506
VWidth: 1304
GlyphClass: 1
UnlinkRmOvrlpSave: 1
Flags: HMW
LayerCount: 2
Fore
SplineSet
64 -241 m 0
 64 -238 66 -235 69 -232 c 1
 297 -167 364 -24 364 34 c 0
 364 39 363 44 362 49 c 0
 350 105 320 185 304 235 c 0
 300 246 304 254 313 261 c 2
 355 298 l 2
 366 307 377 309 383 293 c 0
 405 235 430 160 439 90 c 0
 441 79 442 68 442 57 c 0
 442 53 442 49 442 45 c 0
 442 20 438 -3 431 -24 c 0
 392 -163 255 -285 160 -301 c 1
 137 -301 64 -265 64 -241 c 0
EndSplineSet
Colour: ffda6b
EndChar

StartChar: _.ree.fina
Encoding: 65595 -1 59
GlifName: _.ree.fina
Width: 602
VWidth: 1304
GlyphClass: 1
UnlinkRmOvrlpSave: 1
Flags: HMW
LayerCount: 2
Fore
SplineSet
64 -241 m 0
 64 -238 66 -235 69 -232 c 1
 297 -167 364 -24 364 34 c 0
 364 39 363 44 362 49 c 0
 350 105 320 185 304 235 c 0
 300 246 304 254 313 261 c 2
 355 298 l 2
 366 307 377 309 383 293 c 0
 389 277 395 260 401 242 c 1
 401 241 l 1
 405 231 409 222 411 212 c 0
 455 101 544 101 602 101 c 1
 602 -0 l 1
 552 0 490 9 442 36 c 1
 441 15 437 -6 431 -24 c 0
 390 -164 255 -285 160 -301 c 1
 137 -301 64 -265 64 -241 c 0
EndSplineSet
Colour: ffda6b
EndChar

StartChar: _.he8.isol
Encoding: 65596 -1 60
GlifName: _.he8.isol
Width: 452
VWidth: 1304
GlyphClass: 1
UnlinkRmOvrlpSave: 1
Flags: HMW
LayerCount: 2
Fore
SplineSet
64 119 m 0
 64 203 121 313 158 373 c 1
 151 379 144 385 137 391 c 0
 132 395 130 405 134 410 c 2
 170 473 l 2
 172 478 179 485 186 479 c 2
 202 464 l 1
 383 311 388 206 388 169 c 0
 388 167 388 166 388 164 c 0
 389 88 360 1 209 -0 c 1
 99 1 64 52 64 119 c 0
122 160 m 0
 122 125 144 100 208 100 c 0
 300 101 337 121 337 156 c 0
 337 199 281 263 199 337 c 1
 170 287 122 212 122 160 c 0
EndSplineSet
Colour: ffda6b
EndChar

StartChar: _.he8.fina
Encoding: 65597 -1 61
GlifName: _.he8.fina
Width: 469
VWidth: 1304
GlyphClass: 1
UnlinkRmOvrlpSave: 1
Flags: HMW
LayerCount: 2
Fore
SplineSet
64 195 m 0
 64 263 139 323 222 393 c 1
 218 429 l 2
 217 436 220 445 225 450 c 2
 279 496 l 2
 283 500 294 496 294 490 c 2
 327 200 l 2
 333 141 329 100 469 100 c 1
 469 -0 l 1
 353 0 297 23 267 91 c 1
 246 84 221 80 196 80 c 0
 132 80 64 108 64 195 c 0
122 216 m 0
 122 189 159 181 196 181 c 0
 212 181 229 182 245 184 c 1
 229 337 l 1
 186 303 122 246 122 216 c 0
EndSplineSet
Colour: ffda6b
EndChar

StartChar: _.he8.medi
Encoding: 65598 -1 62
GlifName: _.he8.medi
Width: 497
VWidth: 1304
GlyphClass: 1
UnlinkRmOvrlpSave: 1
Flags: HMW
LayerCount: 2
Fore
SplineSet
346 257 m 0
 346 113 251 44 143 17 c 1
 163 -27 199 -73 243 -111 c 1
 241 -99 239 -87 239 -75 c 0
 239 13 301 100 401 100 c 2
 497 100 l 1
 497 -0 l 1
 398 -0 l 2
 339 0 302 -49 302 -99 c 0
 302 -129 315 -159 345 -181 c 0
 357 -187 370 -192 381 -197 c 0
 392 -201 393 -202 388 -211 c 2
 349 -272 l 2
 347 -277 338 -283 328 -281 c 0
 184 -218 112 -108 85 6 c 1
 57 1 28 0 0 -0 c 1
 -25 1 -50 24 -50 50 c 0
 -49 75 -27 99 -2 100 c 0
 24 100 48 100 73 104 c 1
 73 108 73 111 73 115 c 0
 73 290 159 452 231 452 c 0
 272 452 346 371 346 257 c 0
125 111 m 1
 217 128 289 161 291 197 c 0
 291 200 292 204 292 208 c 0
 292 244 275 307 222 330 c 1
 179 305 126 216 125 111 c 1
EndSplineSet
Colour: ffda6b
EndChar

StartChar: _.he8.init
Encoding: 65599 -1 63
GlifName: _.he8.init
Width: 605
VWidth: 1304
GlyphClass: 1
UnlinkRmOvrlpSave: 1
Flags: HMW
LayerCount: 2
Fore
SplineSet
-50 50 m 0
 -50 76 -26 100 -1 100 c 0
 37 100 75 107 111 117 c 1
 84 148 68 182 68 219 c 0
 68 241 75 264 87 287 c 0
 102 315 125 353 153 384 c 1
 145 389 l 1
 165 489 l 1
 454 344 541 262 541 170 c 0
 541 140 532 110 518 75 c 0
 498 25 459 0 401 -0 c 0
 326 0 253 19 195 50 c 1
 137 18 68 0 -1 -0 c 0
 -26 0 -50 24 -50 50 c 0
292 242 m 0
 292 287 274 338 226 338 c 0
 188 338 150 305 137 271 c 0
 134 264 133 257 133 250 c 0
 133 216 167 185 211 159 c 1
 259 188 292 216 292 242 c 0
287 124 m 1
 330 109 375 100 402 100 c 0
 444 100 464 106 476 134 c 1
 474 181 433 221 341 279 c 1
 342 274 342 269 341 263 c 0
 341 211 321 165 287 124 c 1
EndSplineSet
Colour: ffda6b
EndChar

StartChar: _.yeh.fina
Encoding: 65600 -1 64
GlifName: _.yeh.fina
Width: 813
VWidth: 1304
GlyphClass: 1
UnlinkRmOvrlpSave: 1
Flags: HMW
LayerCount: 2
Fore
SplineSet
64 -38 m 0
 64 32 84 118 129 220 c 0
 134 229 142 235 151 231 c 2
 180 220 l 2
 187 218 193 207 188 196 c 0
 153 116 139 50 139 -3 c 0
 139 -148 246 -202 359 -202 c 0
 442 -202 528 -172 576 -129 c 1
 590 -119 597 -105 597 -88 c 0
 597 -48 557 6 467 59 c 0
 458 64 455 70 455 76 c 0
 455 94 474 118 481 127 c 0
 491 143 505 156 519 156 c 0
 521 156 522 155 524 155 c 0
 556 146 712 100 813 100 c 1
 813 -0 l 1
 751 0 694 10 641 24 c 1
 663 -8 671 -39 671 -67 c 0
 671 -111 651 -148 632 -168 c 1
 567 -252 449 -300 338 -300 c 0
 196 -300 64 -222 64 -38 c 0
EndSplineSet
Colour: ffda6b
EndChar

StartChar: _.yeh.isol
Encoding: 65601 -1 65
GlifName: _.yeh.isol
Width: 803
VWidth: 1304
GlyphClass: 1
UnlinkRmOvrlpSave: 1
Flags: HMW
LayerCount: 2
Fore
SplineSet
64 -44 m 0
 64 28 84 115 131 220 c 0
 136 229 143 235 153 231 c 2
 183 220 l 2
 189 218 195 207 190 196 c 0
 155 112 140 43 140 -11 c 0
 140 -152 240 -201 353 -201 c 0
 464 -201 561 -156 605 -106 c 0
 624 -84 634 -61 634 -42 c 0
 634 -18 617 0 577 -0 c 2
 475 -0 l 2
 402 0 366 39 366 102 c 0
 366 128 373 159 385 192 c 0
 419 283 525 400 623 400 c 0
 661 400 698 382 729 338 c 0
 735 329 739 320 739 312 c 0
 739 294 726 280 710 280 c 0
 708 280 706 279 704 280 c 0
 682 293 658 299 634 299 c 0
 555 299 474 235 440 165 c 0
 436 157 435 150 435 143 c 0
 435 118 460 100 508 100 c 2
 585 100 l 2
 670 100 707 50 707 -9 c 0
 707 -19 706 -30 704 -41 c 0
 683 -204 503 -305 339 -305 c 0
 195 -305 64 -227 64 -44 c 0
EndSplineSet
Colour: ffda6b
EndChar

StartChar: _.hamze.isol
Encoding: 65602 -1 66
GlifName: _.hamze.isol
Width: 502
VWidth: 1304
GlyphClass: 2
Flags: HMW
LayerCount: 2
Fore
SplineSet
280 347 m 0
 228 347 161 320 161 264 c 0
 161 222 200 172 241 157 c 1
 396 230 l 2
 405 234 417 229 421 220 c 2
 437 186 l 2
 439 180 437 166 431 164 c 2
 105 12 l 2
 98 8 86 13 82 22 c 2
 66 58 l 2
 62 65 65 76 72 80 c 2
 163 123 l 1
 111 159 96 214 96 261 c 0
 96 274 97 287 99 298 c 0
 111 362 168 425 264 425 c 0
 287 425 311 421 338 413 c 0
 352 412 352 404 350 394 c 2
 341 353 l 2
 340 348 340 331 322 340 c 0
 310 345 295 347 280 347 c 0
EndSplineSet
Colour: ffda6b
EndChar

StartChar: _.keshide.medi
Encoding: 65603 -1 67
GlifName: _.keshide.medi
Width: 235
VWidth: 1304
GlyphClass: 2
Flags: HMW
LayerCount: 2
Fore
SplineSet
-12 100 m 2
 235 100 l 1
 235 0 l 1
 -12 0 l 2
 -24 0 -33 5 -40 15 c 0
 -47 25 -50 37 -50 50 c 0
 -50 63 -47 75 -40 85 c 0
 -33 95 -24 100 -12 100 c 2
EndSplineSet
Colour: ffda6b
EndChar

StartChar: _.dot.1u
Encoding: 65604 -1 68
GlifName: _.dot.1u
Width: 0
VWidth: 1304
GlyphClass: 2
Flags: HMW
LayerCount: 2
Fore
SplineSet
6 61 m 2
 -1 68 -1 83 6 90 c 2
 61 145 l 2
 68 152 82 152 89 145 c 2
 145 90 l 2
 152 83 152 68 145 61 c 2
 89 6 l 2
 82 -1 68 -1 61 6 c 2
 6 61 l 2
EndSplineSet
Colour: ffda6b
EndChar

StartChar: _.dot.2u
Encoding: 65605 -1 69
GlifName: _.dot.2u
Width: 0
VWidth: 1304
GlyphClass: 2
UnlinkRmOvrlpSave: 1
Flags: HMW
LayerCount: 2
Fore
SplineSet
6 56 m 2
 -1 63 -1 75 6 82 c 2
 57 134 l 2
 64 141 76 141 83 134 c 2
 135 82 l 2
 142 75 142 63 135 56 c 2
 83 5 l 2
 76 -2 64 -2 57 5 c 2
 6 56 l 2
156 56 m 2
 149 63 149 75 156 82 c 2
 207 134 l 2
 214 141 226 141 233 134 c 2
 285 82 l 2
 292 75 292 63 285 56 c 2
 233 5 l 2
 226 -2 214 -2 207 5 c 2
 156 56 l 2
EndSplineSet
Colour: ffda6b
EndChar

StartChar: _.dot.3u
Encoding: 65606 -1 70
GlifName: _.dot.3u
Width: 0
VWidth: 1304
GlyphClass: 2
UnlinkRmOvrlpSave: 1
Flags: HMW
LayerCount: 2
Fore
SplineSet
6 56 m 2
 -1 63 -1 75 6 82 c 2
 57 134 l 2
 64 141 76 141 83 134 c 2
 135 82 l 2
 142 75 142 63 135 56 c 2
 83 5 l 2
 76 -2 64 -2 57 5 c 2
 6 56 l 2
87 197 m 2
 81 204 81 215 87 221 c 2
 135 269 l 2
 142 275 153 275 159 269 c 2
 207 221 l 2
 213 215 213 204 207 197 c 2
 159 150 l 2
 153 143 142 143 135 150 c 2
 87 197 l 2
156 56 m 2
 149 63 149 75 156 82 c 2
 207 134 l 2
 214 141 226 141 233 134 c 2
 285 82 l 2
 292 75 292 63 285 56 c 2
 233 5 l 2
 226 -2 214 -2 207 5 c 2
 156 56 l 2
EndSplineSet
Colour: ffda6b
EndChar

StartChar: _.dot.1d
Encoding: 65607 -1 71
GlifName: _.dot.1d
Width: 0
VWidth: 1304
GlyphClass: 2
Flags: HMW
LayerCount: 2
Fore
SplineSet
6 -61 m 2
 61 -5 l 2
 68 2 82 2 89 -5 c 2
 145 -61 l 2
 152 -68 152 -82 145 -89 c 2
 89 -144 l 2
 82 -151 68 -151 61 -144 c 2
 6 -89 l 2
 -1 -82 -1 -68 6 -61 c 2
EndSplineSet
Colour: ffda6b
EndChar

StartChar: _.dot.2d
Encoding: 65608 -1 72
GlifName: _.dot.2d
Width: 0
VWidth: 1304
GlyphClass: 2
UnlinkRmOvrlpSave: 1
Flags: HMW
LayerCount: 2
Fore
SplineSet
6 -58 m 2
 57 -6 l 2
 64 1 76 1 83 -6 c 2
 135 -58 l 2
 142 -65 142 -77 135 -84 c 2
 83 -136 l 2
 76 -143 64 -143 57 -136 c 2
 6 -84 l 2
 -1 -77 -1 -65 6 -58 c 2
156 -58 m 2
 207 -6 l 2
 214 1 226 1 233 -6 c 2
 285 -58 l 2
 292 -65 292 -77 285 -84 c 2
 233 -136 l 2
 226 -143 214 -143 207 -136 c 2
 156 -84 l 2
 149 -77 149 -65 156 -58 c 2
EndSplineSet
Colour: ffda6b
EndChar

StartChar: _.dot.3d
Encoding: 65609 -1 73
GlifName: _.dot.3d
Width: 0
VWidth: 1304
GlyphClass: 2
UnlinkRmOvrlpSave: 1
Flags: HMW
LayerCount: 2
Fore
SplineSet
6 -58 m 2
 57 -6 l 2
 64 1 76 1 83 -6 c 2
 135 -58 l 2
 142 -65 142 -77 135 -84 c 2
 83 -136 l 2
 76 -143 64 -143 57 -136 c 2
 6 -84 l 2
 -1 -77 -1 -65 6 -58 c 2
87 -208 m 2
 135 -161 l 2
 142 -154 153 -154 159 -161 c 2
 207 -208 l 2
 213 -215 213 -227 207 -233 c 2
 159 -281 l 2
 153 -287 142 -287 135 -281 c 2
 87 -233 l 2
 81 -227 81 -215 87 -208 c 2
156 -58 m 2
 207 -6 l 2
 214 1 226 1 233 -6 c 2
 285 -58 l 2
 292 -65 292 -77 285 -84 c 2
 233 -136 l 2
 226 -143 214 -143 207 -136 c 2
 156 -84 l 2
 149 -77 149 -65 156 -58 c 2
EndSplineSet
Colour: ffda6b
EndChar

StartChar: _.num.0
Encoding: 65611 -1 75
GlifName: _.num.0
Width: 395
VWidth: 1424
GlyphClass: 2
Flags: HMW
LayerCount: 2
Fore
SplineSet
204 167 m 0
 116 167 75 242 75 316 c 0
 75 392 118 468 199 468 c 0
 278 468 320 387 320 310 c 0
 320 237 283 167 204 167 c 0
146 317 m 0
 146 285 163 252 198 252 c 0
 233 252 250 284 250 316 c 0
 250 349 232 382 198 383 c 0
 164 383 146 350 146 317 c 0
EndSplineSet
Colour: ffda6b
EndChar

StartChar: _.num.1
Encoding: 65612 -1 76
GlifName: _.num.1
Width: 347
VWidth: 1331
GlyphClass: 2
Flags: HMW
LayerCount: 2
Fore
SplineSet
78 683 m 0
 71 695 77 706 86 716 c 2
 142 784 l 2
 151 794 161 785 163 780 c 0
 259 554 272 418 272 226 c 0
 272 163 270 95 270 15 c 0
 270 6 266 0 256 -4 c 2
 217 -19 l 1
 196 -29 191 -14 192 -3 c 0
 191 240 188 440 78 683 c 0
EndSplineSet
Colour: ffda6b
EndChar

StartChar: _.num.2
Encoding: 65613 -1 77
GlifName: _.num.2
Width: 633
VWidth: 1331
GlyphClass: 2
Flags: HMW
LayerCount: 2
Fore
SplineSet
220 634 m 1
 249 571 293 519 382 519 c 0
 451 519 470 552 470 593 c 0
 470 631 453 677 441 714 c 0
 437 726 442 732 448 736 c 2
 498 769 l 2
 507 774 515 780 519 766 c 0
 546 695 558 635 558 586 c 0
 558 459 478 400 371 400 c 0
 333 400 295 411 262 433 c 1
 270 367 272 300 272 225 c 0
 272 162 270 94 270 15 c 0
 270 6 266 0 256 -4 c 2
 217 -19 l 1
 196 -29 191 -14 192 -3 c 0
 191 240 188 440 78 683 c 0
 71 695 77 706 86 716 c 2
 142 784 l 2
 151 794 161 785 163 780 c 0
 186 725 205 676 220 629 c 1
 220 634 l 1
EndSplineSet
Colour: ffda6b
EndChar

StartChar: _.num.3
Encoding: 65614 -1 78
GlifName: _.num.3
Width: 822
VWidth: 1331
GlyphClass: 2
Flags: HMW
LayerCount: 2
Fore
SplineSet
78 683 m 0
 71 695 77 706 86 716 c 2
 142 784 l 2
 151 794 161 785 163 780 c 0
 189 718 209 665 225 613 c 0
 245 558 269 519 338 519 c 0
 339 519 341 519 342 519 c 0
 410 519 430 551 430 592 c 0
 430 630 413 677 401 714 c 0
 397 726 401 732 408 736 c 2
 459 769 l 2
 466 774 475 780 480 766 c 0
 506 699 517 640 517 592 c 0
 517 579 516 566 514 554 c 1
 530 548 547 545 568 545 c 0
 569 545 569 545 570 545 c 0
 639 545 660 578 660 619 c 0
 660 657 643 703 631 740 c 0
 627 752 631 758 638 763 c 2
 689 795 l 2
 696 800 705 805 710 791 c 0
 736 723 747 665 747 617 c 0
 747 487 665 427 563 427 c 0
 562 427 562 427 561 427 c 0
 529 427 496 434 466 450 c 1
 433 417 385 400 332 400 c 0
 309 400 286 405 264 412 c 1
 270 354 272 296 272 232 c 0
 272 168 270 97 270 15 c 0
 270 6 266 0 256 -4 c 2
 217 -19 l 1
 196 -29 191 -14 192 -3 c 0
 191 240 188 440 78 683 c 0
EndSplineSet
Colour: ffda6b
EndChar

StartChar: _.num.4.fa
Encoding: 65615 -1 79
GlifName: _.num.4.fa
Width: 731
VWidth: 1331
GlyphClass: 2
Flags: HMW
LayerCount: 2
Fore
SplineSet
78 683 m 0
 71 695 77 706 86 716 c 2
 142 784 l 2
 151 794 161 785 163 780 c 0
 217 652 244 554 259 458 c 1
 271 452 285 447 299 442 c 1
 274 491 262 541 262 580 c 0
 262 689 323 797 468 797 c 0
 510 797 559 788 615 767 c 0
 629 763 623 755 619 746 c 2
 597 684 l 2
 595 677 586 674 574 678 c 0
 552 685 528 688 503 688 c 0
 427 688 350 655 349 582 c 0
 349 516 387 466 435 429 c 1
 497 434 557 452 606 469 c 0
 610 470 614 470 617 470 c 0
 632 470 643 461 645 452 c 2
 656 405 l 2
 656 403 656 400 656 398 c 0
 656 386 651 374 635 369 c 0
 554 341 474 329 403 329 c 0
 354 329 309 335 269 346 c 1
 271 308 272 269 272 227 c 0
 272 164 270 95 270 15 c 0
 270 6 266 0 256 -4 c 2
 217 -19 l 1
 196 -29 191 -14 192 -3 c 0
 191 240 188 440 78 683 c 0
EndSplineSet
Colour: ffda6b
EndChar

StartChar: _.num.5.fa
Encoding: 65617 -1 81
GlifName: _.num.5.fa
Width: 742
VWidth: 1331
GlyphClass: 2
Flags: HMW
LayerCount: 2
Fore
SplineSet
227 -7 m 0
 146 -7 75 54 75 162 c 0
 75 206 89 385 291 652 c 1
 315 634 l 1
 287 657 256 680 222 703 c 1
 283 800 l 1
 283 800 657 575 667 188 c 1
 667 188 671 7 539 -0 c 0
 525 0 510 -2 493 -2 c 0
 446 -2 393 9 366 80 c 1
 335 21 280 -7 227 -7 c 0
509 129 m 0
 544 129 570 146 570 185 c 0
 570 225 559 404 365 589 c 1
 227 400 182 276 182 204 c 0
 182 147 210 122 241 122 c 0
 282 122 329 166 329 238 c 0
 329 242 329 247 329 251 c 1
 414 273 l 1
 414 273 414 271 414 268 c 0
 414 256 414 225 421 191 c 0
 430 151 472 129 509 129 c 0
EndSplineSet
Colour: ffda6b
EndChar

StartChar: _.num.6.fa
Encoding: 65619 -1 83
GlifName: _.num.6.fa
Width: 774
VWidth: 1331
GlyphClass: 2
Flags: HMW
LayerCount: 2
Fore
SplineSet
79 1 m 2
 74 11 74 18 80 24 c 0
 197 151 276 242 368 321 c 1
 288 387 246 481 246 568 c 0
 246 691 330 800 511 800 c 0
 546 800 586 795 629 786 c 1
 644 787 642 778 640 768 c 2
 626 699 l 2
 625 692 620 684 608 686 c 0
 578 690 550 692 526 692 c 0
 395 692 344 634 344 566 c 0
 344 502 389 429 454 386 c 1
 516 428 588 467 682 509 c 0
 687 511 700 510 699 498 c 2
 695 410 l 2
 694 396 690 385 678 381 c 0
 432 279 291 135 125 -42 c 0
 119 -51 105 -57 95 -36 c 2
 79 1 l 2
EndSplineSet
Colour: ffda6b
EndChar

StartChar: _.num.7
Encoding: 65621 -1 85
GlifName: _.num.7
Width: 682
VWidth: 1331
GlyphClass: 2
Flags: HMW
LayerCount: 2
Fore
SplineSet
81 654 m 0
 71 664 75 675 81 687 c 2
 123 764 l 2
 129 775 142 769 144 764 c 0
 249 615 308 386 341 247 c 1
 374 386 433 615 538 764 c 0
 540 769 553 775 559 764 c 2
 601 687 l 2
 607 675 611 664 601 654 c 0
 495 500 381 160 381 21 c 0
 381 6 376 1 365 -4 c 2
 330 -19 l 2
 325 -21 321 -21 317 -21 c 0
 308 -21 301 -15 301 -1 c 0
 299 192 184 496 81 654 c 0
EndSplineSet
Colour: ffda6b
EndChar

StartChar: _.num.8
Encoding: 65622 -1 86
GlifName: _.num.8
Width: 682
VWidth: 1331
GlyphClass: 2
Flags: HMW
LayerCount: 2
Fore
SplineSet
81 63 m 2
 75 74 71 86 81 96 c 0
 184 254 299 558 301 750 c 0
 301 765 308 771 317 771 c 0
 321 771 325 770 330 768 c 2
 365 753 l 2
 376 748 381 744 381 729 c 0
 381 590 495 249 601 96 c 0
 611 86 607 74 601 63 c 2
 559 -15 l 2
 553 -26 540 -20 538 -16 c 0
 433 134 374 363 341 502 c 1
 308 363 249 134 144 -16 c 0
 142 -20 129 -26 123 -15 c 2
 81 63 l 2
EndSplineSet
Colour: ffda6b
EndChar

StartChar: _.num.9
Encoding: 65623 -1 87
GlifName: _.num.9
Width: 629
VWidth: 1331
GlyphClass: 2
Flags: HMW
LayerCount: 2
Fore
SplineSet
75 531 m 0
 75 659 170 800 270 800 c 0
 418 800 441 574 450 445 c 1
 464 324 492 205 551 72 c 0
 558 61 553 50 544 40 c 2
 487 -27 l 2
 478 -37 468 -29 467 -24 c 0
 401 130 373 242 363 359 c 1
 344 358 328 357 311 357 c 0
 131 357 75 436 75 531 c 0
152 549 m 0
 152 503 190 462 293 462 c 0
 312 462 333 463 356 466 c 1
 349 563 328 678 254 679 c 0
 212 679 152 611 152 549 c 0
EndSplineSet
Colour: ffda6b
EndChar

StartChar: _.sing.backslash
Encoding: 65624 -1 88
GlifName: _.sing.backslash
Width: 442
VWidth: 1197
GlyphClass: 2
Flags: HMW
LayerCount: 2
Fore
SplineSet
50 720 m 1
 151 720 l 1
 392 -14 l 1
 290 -14 l 1
 50 720 l 1
EndSplineSet
Colour: ffda6b
EndChar

StartChar: _.sing.slash
Encoding: 65625 -1 89
GlifName: _.sing.slash
Width: 442
VWidth: 1197
GlyphClass: 2
Flags: HMW
LayerCount: 2
Fore
SplineSet
50 -14 m 1
 290 720 l 1
 392 720 l 1
 151 -14 l 1
 50 -14 l 1
EndSplineSet
Colour: ffda6b
EndChar

StartChar: _.sing.tajob
Encoding: 65626 -1 90
GlifName: _.sing.tajob
Width: 255
VWidth: 1197
GlyphClass: 2
Flags: HMW
LayerCount: 2
Fore
SplineSet
50 81 m 1
 128 159 l 1
 205 81 l 1
 128 5 l 1
 50 81 l 1
77 756 m 1
 177 756 l 1
 161 220 l 1
 94 220 l 1
 77 756 l 1
EndSplineSet
Colour: ffda6b
EndChar

StartChar: _.sing.soal
Encoding: 65627 -1 91
GlifName: _.sing.soal
Width: 460
VWidth: 1304
GlyphClass: 2
Flags: HMW
LayerCount: 2
Fore
SplineSet
229 759 m 0
 294 759 340 740 368 701 c 0
 396 662 410 607 410 535 c 2
 410 503 l 1
 333 503 l 1
 333 535 l 2
 333 630 298 677 229 677 c 0
 190 677 160 657 139 617 c 0
 133 603 130 589 130 575 c 0
 130 548 142 519 166 487 c 0
 171 480 178 472 187 460 c 0
 196 448 204 436 212 426 c 0
 220 416 227 406 232 396 c 0
 256 351 268 304 268 255 c 2
 268 215 l 1
 202 215 l 1
 202 242 l 2
 202 300 177 356 127 410 c 0
 123 415 116 424 108 434 c 0
 100 444 94 452 90 457 c 0
 63 495 50 533 50 570 c 2
 50 579 l 2
 50 626 66 667 98 702 c 0
 129 740 173 759 229 759 c 0
157 77 m 1
 235 155 l 1
 312 77 l 1
 235 -0 l 1
 157 77 l 1
EndSplineSet
Colour: ffda6b
EndChar

StartChar: _.sing.beezafeh
Encoding: 65628 -1 92
GlifName: _.sing.beezafeh
Width: 494
VWidth: 1352
GlyphClass: 2
Flags: HMW
LayerCount: 2
Fore
SplineSet
50 263 m 1
 50 335 l 1
 211 335 l 1
 211 495 l 1
 283 495 l 1
 283 335 l 1
 444 335 l 1
 444 263 l 1
 283 263 l 1
 283 103 l 1
 211 103 l 1
 211 263 l 1
 50 263 l 1
EndSplineSet
Colour: ffda6b
EndChar

StartChar: _.sing.menha
Encoding: 65629 -1 93
GlifName: _.sing.menha
Width: 500
VWidth: 0
GlyphClass: 2
Flags: HMW
LayerCount: 2
Fore
SplineSet
50 200 m 1
 50 300 l 1
 450 300 l 1
 450 200 l 1
 50 200 l 1
EndSplineSet
Colour: ffda6b
EndChar

StartChar: _.sing.khateh_tire
Encoding: 65630 -1 94
GlifName: _.sing.khateh_tire
Width: 200
VWidth: 0
GlyphClass: 2
Flags: HMW
LayerCount: 2
Fore
SplineSet
50 -100 m 1
 50 300 l 1
 150 300 l 1
 150 -100 l 1
 50 -100 l 1
50 401 m 1
 50 801 l 1
 150 801 l 1
 150 401 l 1
 50 401 l 1
EndSplineSet
Colour: ffda6b
EndChar

StartChar: _.sing.virgul
Encoding: 65631 -1 95
GlifName: _.sing.virgul
Width: 251
VWidth: 1197
GlyphClass: 2
Flags: HMW
LayerCount: 2
Fore
SplineSet
50 190 m 0
 50 265 92 357 148 410 c 1
 195 362 l 1
 173 338 142 292 142 251 c 0
 142 234 147 218 160 205 c 2
 182 184 l 2
 195 171 201 156 201 142 c 0
 201 107 168 76 132 76 c 0
 118 76 103 81 90 92 c 0
 62 115 50 150 50 190 c 0
EndSplineSet
Colour: ffda6b
EndChar

StartChar: _.sing.dot_virgul
Encoding: 65632 -1 96
GlifName: _.sing.dot_virgul
Width: 287
VWidth: 1304
GlyphClass: 2
Flags: HMW
LayerCount: 2
Fore
SplineSet
217 402 m 0
 217 367 185 338 149 338 c 0
 128 338 104 348 84 372 c 0
 60 402 50 431 50 459 c 0
 50 506 77 549 112 589 c 1
 173 661 l 1
 220 614 l 1
 167 555 l 2
 148 534 137 510 137 491 c 0
 137 461 162 464 181 461 c 1
 206 443 217 422 217 402 c 0
52 192 m 1
 144 284 l 1
 237 192 l 1
 144 100 l 1
 52 192 l 1
EndSplineSet
Colour: ffda6b
EndChar

StartChar: _.sing.2noqte
Encoding: 65633 -1 97
GlifName: _.sing.2noqte
Width: 255
VWidth: 1352
GlyphClass: 2
Flags: HMW
LayerCount: 2
Fore
SplineSet
50 106 m 1
 128 183 l 1
 205 106 l 1
 128 29 l 1
 50 106 l 1
50 327 m 1
 128 406 l 1
 205 327 l 1
 128 250 l 1
 50 327 l 1
EndSplineSet
Colour: ffda6b
EndChar

StartChar: _.sing.noqte
Encoding: 65634 -1 98
GlifName: _.sing.noqte
Width: 295
VWidth: 1352
GlyphClass: 2
Flags: HMW
LayerCount: 2
Fore
SplineSet
50 97 m 1
 148 196 l 1
 245 97 l 1
 148 1 l 1
 50 97 l 1
EndSplineSet
Colour: ffda6b
EndChar

StartChar: _.sing.gheiomeh.right
Encoding: 65635 -1 99
GlifName: _.sing.gheiomeh.right
Width: 527
VWidth: 1352
GlyphClass: 2
Flags: HMW
LayerCount: 2
Fore
SplineSet
50 200 m 0
 50 302 92 405 173 500 c 1
 247 433 l 1
 185 346 153 267 153 191 c 0
 153 115 185 42 247 -32 c 1
 173 -97 l 1
 91 -2 50 99 50 200 c 0
280 200 m 0
 280 302 322 405 403 500 c 1
 477 433 l 1
 414 346 383 268 383 192 c 0
 383 116 415 43 477 -32 c 1
 403 -97 l 1
 321 -2 280 99 280 200 c 0
EndSplineSet
Colour: ffda6b
EndChar

StartChar: _.sing.gheiomeh.left
Encoding: 65636 -1 100
GlifName: _.sing.gheiomeh.left
Width: 527
VWidth: 1352
GlyphClass: 2
Flags: HMW
LayerCount: 2
Fore
SplineSet
50 -32 m 1
 112 43 144 116 144 192 c 0
 144 268 113 346 50 433 c 1
 124 500 l 1
 205 405 247 302 247 200 c 0
 247 99 206 -2 124 -97 c 1
 50 -32 l 1
280 -32 m 1
 342 43 374 116 374 192 c 0
 374 268 343 346 280 433 c 1
 354 500 l 1
 435 405 477 302 477 200 c 0
 477 99 436 -2 354 -97 c 1
 280 -32 l 1
EndSplineSet
Colour: ffda6b
EndChar

StartChar: _.sing.parantez.right
Encoding: 65637 -1 101
GlifName: _.sing.parantez.right
Width: 329
VWidth: 1352
GlyphClass: 2
Flags: HMW
LayerCount: 2
Fore
SplineSet
50 301 m 0
 50 441 112 580 237 759 c 1
 279 719 l 1
 193 595 149 446 149 298 c 0
 149 150 193 2 279 -122 c 1
 238 -160 l 1
 113 20 50 161 50 301 c 0
EndSplineSet
Colour: ffda6b
EndChar

StartChar: _.sing.parantez.left
Encoding: 65638 -1 102
GlifName: _.sing.parantez.left
Width: 329
VWidth: 1352
GlyphClass: 2
Flags: HMW
LayerCount: 2
Fore
SplineSet
50 -122 m 1
 136 2 179 150 179 298 c 0
 179 446 136 595 50 719 c 1
 92 759 l 1
 217 580 279 441 279 301 c 0
 279 161 216 20 91 -160 c 1
 50 -122 l 1
EndSplineSet
Colour: ffda6b
EndChar

StartChar: _.sing.parantez_tazeeni.right
Encoding: 65639 -1 103
GlifName: _.sing.parantez_tazeeni.right
Width: 503
VWidth: 0
GlyphClass: 2
Flags: HMW
LayerCount: 2
Fore
SplineSet
50 342 m 1
 72 410 l 1
 123 393 l 2
 139 388 155 381 172 375 c 0
 179 371 187 367 196 365 c 1
 200 393 206 423 216 453 c 1
 216 513 l 1
 238 513 l 1
 269 589 316 669 379 759 c 1
 421 719 l 1
 347 612 305 488 294 361 c 1
 321 372 351 384 379 393 c 2
 429 410 l 1
 453 342 l 1
 401 326 l 2
 369 316 333 308 299 298 c 1
 322 272 344 244 365 216 c 2
 397 173 l 1
 339 132 l 1
 309 175 l 2
 307 180 302 183 300 187 c 1
 316 77 357 -28 421 -122 c 1
 380 -160 l 1
 288 -27 229 85 204 191 c 1
 202 186 198 180 194 175 c 2
 162 132 l 1
 105 173 l 1
 136 216 l 1
 154 239 174 263 192 285 c 1
 192 301 l 1
 161 308 132 316 102 326 c 2
 50 342 l 1
EndSplineSet
Colour: ffda6b
EndChar

StartChar: _.sing.koroshe.right
Encoding: 65641 -1 105
GlifName: _.sing.koroshe.right
Width: 306
VWidth: 1197
GlyphClass: 2
Flags: HMW
LayerCount: 2
Fore
SplineSet
50 -202 m 1
 50 798 l 1
 256 798 l 1
 256 694 l 1
 150 694 l 1
 150 -97 l 1
 256 -97 l 1
 256 -202 l 1
 50 -202 l 1
EndSplineSet
Colour: ffda6b
EndChar

StartChar: _.sing.koroshe.left
Encoding: 65642 -1 106
GlifName: _.sing.koroshe.left
Width: 306
VWidth: 1197
GlyphClass: 2
Flags: HMW
LayerCount: 2
Fore
SplineSet
50 -99 m 1
 156 -99 l 1
 156 693 l 1
 50 693 l 1
 50 798 l 1
 256 798 l 1
 256 -202 l 1
 50 -202 l 1
 50 -99 l 1
EndSplineSet
Colour: ffda6b
EndChar

StartChar: _.sing.akolad.right
Encoding: 65643 -1 107
GlifName: _.sing.akolad.right
Width: 402
VWidth: 1197
GlyphClass: 2
Flags: HMW
LayerCount: 2
Fore
SplineSet
50 251 m 1
 50 349 l 1
 118 349 150 382 150 464 c 2
 150 620 l 2
 150 701 149 800 352 800 c 1
 352 700 l 1
 270 700 249 674 249 619 c 2
 249 474 l 2
 249 421 232 321 178 300 c 1
 232 279 249 180 249 127 c 2
 249 -19 l 2
 249 -73 270 -100 352 -100 c 1
 352 -200 l 1
 149 -200 150 -101 150 -20 c 2
 150 136 l 2
 150 218 118 251 50 251 c 1
EndSplineSet
Colour: ffda6b
EndChar

StartChar: _.sing.akolad.left
Encoding: 65644 -1 108
GlifName: _.sing.akolad.left
Width: 402
VWidth: 1197
GlyphClass: 2
Flags: HMW
LayerCount: 2
Fore
SplineSet
50 -100 m 1
 131 -100 151 -73 151 -19 c 2
 151 127 l 2
 151 180 169 279 224 300 c 1
 169 321 151 421 151 474 c 2
 151 619 l 2
 151 674 131 700 50 700 c 1
 50 800 l 1
 252 800 252 701 252 620 c 2
 252 464 l 2
 252 382 284 349 352 349 c 1
 352 251 l 1
 284 251 252 218 252 136 c 2
 252 -20 l 2
 252 -101 252 -200 50 -200 c 1
 50 -100 l 1
EndSplineSet
Colour: ffda6b
EndChar

StartChar: _.mark.maad
Encoding: 65645 -1 109
GlifName: _.mark.maad
Width: 0
VWidth: 1352
GlyphClass: 2
Flags: HMW
LayerCount: 2
Fore
SplineSet
0 26 m 1
 32 92 l 2
 44 119 64 138 89 138 c 0
 95 138 101 137 107 135 c 0
 146 124 179 119 210 119 c 0
 259 119 302 131 359 148 c 1
 366 74 l 1
 310 55 261 42 210 42 c 0
 172 42 131 49 86 65 c 1
 75 45 65 22 54 -0 c 1
 0 26 l 1
EndSplineSet
Colour: ffda6b
EndChar

StartChar: _.mark.fatheh
Encoding: 65646 -1 110
GlifName: _.mark.fatheh
Width: 0
VWidth: 2310
GlyphClass: 2
Flags: HMW
LayerCount: 2
Fore
SplineSet
0 45 m 1
 256 165 l 1
 278 114 l 1
 23 -5 l 1
 0 45 l 1
EndSplineSet
Colour: ffda6b
EndChar

StartChar: _.mark.kasreh
Encoding: 65647 -1 111
GlifName: _.mark.kasreh
Width: 0
VWidth: 2384
GlyphClass: 2
Flags: HMW
LayerCount: 2
Fore
SplineSet
0 -125 m 1
 256 -6 l 1
 278 -56 l 1
 23 -175 l 1
 0 -125 l 1
EndSplineSet
Colour: ffda6b
EndChar

StartChar: _.mark.zameh
Encoding: 65648 -1 112
GlifName: _.mark.zameh
Width: 0
VWidth: 2277
GlyphClass: 2
Flags: HMW
LayerCount: 2
Fore
SplineSet
202 287 m 0
 247 287 279 243 279 196 c 0
 279 155 255 109 193 80 c 2
 23 1 l 1
 0 50 l 1
 143 117 l 1
 124 139 111 165 111 193 c 0
 111 242 146 287 202 287 c 0
165 193 m 0
 165 179 172 164 179 155 c 2
 191 140 l 1
 215 153 229 173 229 191 c 0
 229 206 219 220 197 228 c 1
 173 223 165 208 165 193 c 0
EndSplineSet
Colour: ffda6b
EndChar

StartChar: _.mark.tanvin_fatheh
Encoding: 65649 -1 113
GlifName: _.mark.tanvin_fatheh
Width: 0
VWidth: 2280
GlyphClass: 2
Flags: HMW
LayerCount: 2
Fore
SplineSet
0 49 m 1
 256 168 l 1
 279 118 l 1
 23 -0 l 1
 0 49 l 1
0 170 m 1
 256 289 l 1
 279 240 l 1
 23 120 l 1
 0 170 l 1
EndSplineSet
Colour: ffda6b
EndChar

StartChar: _.mark.tanvin_kasreh
Encoding: 65650 -1 114
GlifName: _.mark.tanvin_kasreh
Width: 0
VWidth: 2413
GlyphClass: 2
Flags: HMW
LayerCount: 2
Fore
SplineSet
0 -120 m 1
 256 -1 l 1
 279 -51 l 1
 23 -170 l 1
 0 -120 l 1
0 -240 m 1
 256 -122 l 1
 279 -171 l 1
 23 -291 l 1
 0 -240 l 1
EndSplineSet
Colour: ffda6b
EndChar

StartChar: _.mark.tanvin_zameh
Encoding: 65651 -1 115
GlifName: _.mark.tanvin_zameh
Width: 0
VWidth: 2273
GlyphClass: 2
Flags: HMW
LayerCount: 2
Fore
SplineSet
226 287 m 0
 271 287 304 243 304 196 c 0
 304 155 280 109 218 80 c 2
 48 1 l 1
 25 50 l 1
 66 70 l 1
 70 79 73 90 73 100 c 0
 73 114 68 125 56 125 c 0
 52 125 48 125 43 122 c 2
 25 111 l 1
 0 151 l 1
 21 164 l 2
 32 170 42 172 51 172 c 0
 88 172 109 130 109 100 c 0
 109 96 109 93 108 90 c 1
 167 117 l 1
 148 139 136 165 136 193 c 0
 136 242 170 287 226 287 c 0
189 193 m 0
 189 179 196 164 203 155 c 2
 215 140 l 1
 239 153 253 173 253 191 c 0
 253 206 244 220 222 228 c 1
 198 223 189 208 189 193 c 0
EndSplineSet
Colour: ffda6b
EndChar

StartChar: _.mark.tashdid
Encoding: 65652 -1 116
GlifName: _.mark.tashdid
Width: 0
VWidth: 1833
GlyphClass: 2
Flags: HMW
LayerCount: 2
Fore
SplineSet
0 88 m 0
 0 92 0 96 0 100 c 2
 7 168 l 1
 51 164 l 1
 47 114 l 2
 47 111 47 109 47 106 c 0
 47 73 67 57 88 57 c 0
 110 57 133 77 133 116 c 2
 133 166 l 1
 177 166 l 1
 177 117 l 1
 179 73 199 55 218 55 c 0
 237 55 255 73 255 103 c 2
 255 164 l 1
 301 168 l 1
 301 101 l 2
 302 32 256 0 216 0 c 0
 189 0 164 14 157 40 c 1
 147 15 115 0 83 -0 c 0
 42 0 0 25 0 88 c 0
EndSplineSet
Colour: ffda6b
EndChar

StartChar: _.mark.hamze
Encoding: 65653 -1 117
GlifName: _.mark.hamze
Width: 0
VWidth: 1841
GlyphClass: 2
Flags: HMW
LayerCount: 2
Fore
SplineSet
0 49 m 1
 74 84 l 1
 47 106 34 138 34 170 c 0
 34 228 75 286 147 286 c 0
 167 286 189 282 213 272 c 1
 202 223 l 1
 185 227 170 229 157 229 c 0
 107 229 84 201 84 171 c 0
 84 146 99 121 127 108 c 1
 256 168 l 1
 278 118 l 1
 23 -0 l 1
 0 49 l 1
EndSplineSet
Colour: ffda6b
EndChar

StartChar: _.mark.sakon
Encoding: 65654 -1 118
GlifName: _.mark.sakon
Width: 0
VWidth: 2099
GlyphClass: 2
Flags: HMW
LayerCount: 2
Fore
SplineSet
81 -0 m 0
 35 0 0 39 0 85 c 0
 0 132 34 168 81 168 c 0
 122 168 144 146 158 118 c 0
 162 108 164 97 164 85 c 0
 164 47 142 18 113 7 c 0
 103 2 93 0 81 -0 c 0
80 120 m 0
 60 120 43 104 43 84 c 0
 43 64 60 47 80 47 c 0
 100 47 118 63 118 84 c 0
 118 104 100 120 80 120 c 0
EndSplineSet
Colour: ffda6b
EndChar

StartChar: _.mark.alef
Encoding: 65655 -1 119
GlifName: _.mark.alef
Width: 0
VWidth: 2091
GlyphClass: 2
Flags: HMW
LayerCount: 2
Fore
SplineSet
0 216 m 1
 50 235 l 1
 81 151 89 92 89 -3 c 1
 41 -3 l 1
 41 83 28 140 0 216 c 1
EndSplineSet
Colour: ffda6b
EndChar

StartChar: _.sing.momaiez
Encoding: 65656 -1 120
GlifName: _.sing.momaiez
Width: 403
VWidth: 1352
GlyphClass: 2
Flags: HMW
LayerCount: 2
Fore
SplineSet
50 -169 m 1
 267 429 l 1
 353 400 l 1
 142 -198 l 1
 50 -169 l 1
EndSplineSet
Colour: ffda6b
EndChar

StartChar: _.sing.hezare
Encoding: 65657 -1 121
GlifName: _.sing.hezare
Width: 222
VWidth: 1197
GlyphClass: 2
Flags: HMW
LayerCount: 2
Fore
SplineSet
50 900 m 1
 172 900 l 1
 130 700 l 1
 91 700 l 1
 50 900 l 1
EndSplineSet
Colour: ffda6b
EndChar

StartChar: _.sing.darsad
Encoding: 65658 -1 122
GlifName: _.sing.darsad
Width: 624
VWidth: 1197
GlyphClass: 2
Flags: HMW
LayerCount: 2
Fore
SplineSet
50 612 m 1
 142 704 l 1
 235 612 l 1
 142 521 l 1
 50 612 l 1
56 88 m 1
 477 736 l 1
 574 709 l 1
 153 63 l 1
 56 88 l 1
349 173 m 1
 441 266 l 1
 534 173 l 1
 441 81 l 1
 349 173 l 1
EndSplineSet
Colour: ffda6b
EndChar

StartChar: _.sing.mosavi
Encoding: 65659 -1 123
GlifName: _.sing.mosavi
Width: 500
VWidth: 1197
GlyphClass: 2
Flags: HMW
LayerCount: 2
Fore
SplineSet
50 200 m 1
 50 300 l 1
 450 300 l 1
 450 200 l 1
 50 200 l 1
50 400 m 1
 50 501 l 1
 449 501 l 1
 449 400 l 1
 50 400 l 1
EndSplineSet
Colour: ffda6b
EndChar

StartChar: _.beh_k.init
Encoding: 65661 -1 125
GlifName: _.beh_k.init
Width: 326
VWidth: 1197
GlyphClass: 2
UnlinkRmOvrlpSave: 1
Flags: HMW
LayerCount: 2
Fore
SplineSet
-50 49 m 0
 -50 76 -27 100 -1 100 c 0
 10 100 22 100 33 100 c 0
 102 100 153 115 185 135 c 1
 185 138 185 141 185 144 c 0
 185 193 159 282 146 327 c 0
 141 342 148 349 153 354 c 2
 202 396 l 2
 214 407 223 396 225 390 c 0
 248 320 262 253 262 195 c 0
 262 79 203 0 28 -0 c 2
 -1 -0 l 2
 -25 0 -50 24 -50 49 c 0
EndSplineSet
Colour: ffda6b
EndChar

StartChar: _.beh_k.medi
Encoding: 65662 -1 126
GlifName: _.beh_k.medi
Width: 418
VWidth: 1304
GlyphClass: 2
UnlinkRmOvrlpSave: 1
Flags: HMW
LayerCount: 2
Fore
SplineSet
-50 49 m 0
 -50 76 -27 100 -1 100 c 2
 25 100 l 2
 82 100 124 108 161 124 c 0
 173 133 184 144 184 160 c 2
 184 300 l 2
 184 314 186 325 204 330 c 2
 239 338 l 2
 254 342 264 337 264 320 c 2
 264 160 l 2
 264 140 276 124 297 118 c 0
 334 107 391 100 418 100 c 1
 418 -0 l 1
 354 0 268 14 221 64 c 1
 178 18 109 0 25 -0 c 2
 -1 -0 l 2
 -25 0 -50 24 -50 49 c 0
EndSplineSet
Colour: ffda6b
EndChar

StartChar: _.sing.3noqte
Encoding: 65663 -1 127
GlifName: _.sing.3noqte
Width: 804
VWidth: 1304
GlyphClass: 2
Flags: HMW
LayerCount: 2
Fore
SplineSet
50 97 m 1
 147 196 l 1
 245 97 l 1
 147 1 l 1
 50 97 l 1
310 97 m 1
 408 196 l 1
 504 97 l 1
 408 1 l 1
 310 97 l 1
560 97 m 1
 658 196 l 1
 754 97 l 1
 658 1 l 1
 560 97 l 1
EndSplineSet
Colour: ffda6b
EndChar

StartChar: s.khat_tire
Encoding: 8208 8208 138
GlifName: s.khat_tire
Width: 504
VWidth: 0
GlyphClass: 2
Flags: HMW
LayerCount: 2
Fore
SplineSet
55 229 m 1
 55 307 l 1
 451 307 l 1
 451 229 l 1
 55 229 l 1
EndSplineSet
Colour: d7d7d7
EndChar

StartChar: s.zwj
Encoding: 8205 8205 174
GlifName: s.zwj
Width: 0
VWidth: 1331
GlyphClass: 2
Flags: HMW
LayerCount: 2
Fore
SplineSet
25 -327 m 1
 -25 -327 l 1
 -25 579 l 1
 -111 491 l 1
 -141 521 l 1
 -30 631 l 1
 -141 740 l 1
 -111 772 l 1
 0 660 l 1
 111 772 l 1
 141 740 l 1
 30 631 l 1
 141 521 l 1
 111 491 l 1
 25 579 l 1
 25 -327 l 1
EndSplineSet
Colour: d7d7d7
EndChar

StartChar: s.tagsim
Encoding: 247 247 182
GlifName: s.tagsim
Width: 564
VWidth: 1278
GlyphClass: 2
Flags: HMW
LayerCount: 2
Fore
SplineSet
59 352 m 1
 59 429 l 1
 506 429 l 1
 506 352 l 1
 59 352 l 1
234 204 m 1
 234 299 l 1
 330 299 l 1
 330 204 l 1
 234 204 l 1
234 482 m 1
 234 577 l 1
 330 577 l 1
 330 482 l 1
 234 482 l 1
EndSplineSet
Colour: d7d7d7
EndChar

StartChar: s.zwnj
Encoding: 8204 8204 215
GlifName: s.zwnj
Width: 0
VWidth: 1331
GlyphClass: 2
Flags: HMW
LayerCount: 2
Fore
SplineSet
-25 -308 m 1
 -25 710 l 1
 25 710 l 1
 25 -308 l 1
 -25 -308 l 1
EndSplineSet
Colour: d7d7d7
EndChar

StartChar: s.dotted_circle
Encoding: 9676 9676 220
GlifName: s.dotted_circle
Width: 576
VWidth: 1890
GlyphClass: 2
Flags: HMW
LayerCount: 2
Fore
SplineSet
60 181 m 0
 60 196 67 203 82 203 c 0
 97 203 104 196 104 182 c 2
 104 180 l 2
 104 166 97 159 82 159 c 0
 67 159 60 166 60 181 c 0
76 103 m 0
 76 118 83 126 98 126 c 0
 113 126 120 118 120 103 c 0
 120 88 113 80 98 80 c 0
 83 80 76 88 76 103 c 0
76 259 m 0
 76 274 83 282 98 282 c 0
 113 282 120 274 120 259 c 0
 120 244 113 236 99 236 c 0
 84 236 76 244 76 259 c 0
120 34 m 0
 120 49 127 56 142 57 c 0
 157 56 164 49 165 34 c 0
 164 19 157 12 142 12 c 0
 127 12 120 19 120 34 c 0
120 326 m 0
 120 341 127 348 142 349 c 0
 157 348 164 341 165 326 c 0
 164 311 157 304 142 304 c 0
 127 304 120 311 120 326 c 0
187 -8 m 0
 187 7 195 14 210 14 c 0
 225 14 233 7 233 -8 c 0
 233 -23 225 -30 210 -30 c 0
 195 -30 187 -23 187 -8 c 0
187 372 m 0
 187 387 195 394 210 394 c 0
 225 394 233 387 233 372 c 0
 233 357 225 350 210 350 c 0
 195 350 187 357 187 372 c 0
310 -26 m 0
 310 -41 303 -48 288 -48 c 0
 273 -48 266 -41 265 -26 c 0
 266 -11 273 -4 288 -3 c 0
 303 -4 310 -11 310 -26 c 0
288 410 m 0
 303 410 310 403 310 388 c 0
 310 373 303 366 288 365 c 0
 273 366 266 373 265 388 c 0
 266 403 273 410 288 410 c 0
344 -8 m 0
 344 7 352 14 367 14 c 0
 382 14 390 7 390 -8 c 0
 390 -22 382 -30 367 -31 c 0
 352 -30 344 -22 344 -8 c 0
344 372 m 0
 344 387 352 394 367 394 c 0
 382 394 390 387 390 372 c 0
 390 358 382 350 367 349 c 0
 352 350 344 358 344 372 c 0
412 34 m 0
 412 49 419 56 434 57 c 0
 449 56 456 49 456 34 c 0
 456 19 449 12 434 12 c 0
 419 12 412 19 412 34 c 0
412 326 m 0
 412 341 419 348 434 349 c 0
 449 348 456 341 456 326 c 0
 456 311 449 304 434 304 c 0
 419 304 412 311 412 326 c 0
456 103 m 0
 456 118 463 126 478 126 c 0
 492 126 500 118 501 103 c 0
 500 88 492 80 478 80 c 0
 463 80 456 88 456 103 c 0
456 259 m 0
 456 274 463 282 478 282 c 0
 492 282 500 274 501 259 c 0
 500 244 492 236 478 236 c 0
 463 236 456 244 456 259 c 0
472 181 m 0
 472 196 479 203 494 203 c 0
 509 203 516 196 517 182 c 2
 517 180 l 2
 516 166 509 159 494 159 c 0
 479 159 472 166 472 181 c 0
EndSplineSet
Colour: d7d7d7
EndChar

StartChar: s.figure_dash
Encoding: 8210 8210 224
GlifName: s.figure_dash
Width: 600
VWidth: 0
GlyphClass: 2
Flags: HMW
LayerCount: 2
Fore
SplineSet
55 229 m 1
 55 307 l 1
 547 307 l 1
 547 229 l 1
 55 229 l 1
EndSplineSet
Colour: d7d7d7
EndChar

StartChar: s.em_dash
Encoding: 8212 8212 263
GlifName: s.em_dash
Width: 1200
VWidth: 1175
GlyphClass: 2
Flags: HMW
LayerCount: 2
Fore
SplineSet
55 229 m 1
 55 307 l 1
 1147 307 l 1
 1147 229 l 1
 55 229 l 1
EndSplineSet
Colour: d7d7d7
EndChar

StartChar: s.bullet
Encoding: 8226 8226 278
GlifName: s.bullet
Width: 602
VWidth: 1331
GlyphClass: 2
Flags: HMW
LayerCount: 2
Fore
SplineSet
532 432 m 0
 532 369 509 315 464 270 c 0
 419 225 365 202 302 202 c 0
 245 202 194 223 147 266 c 0
 100 309 77 357 77 410 c 0
 77 483 99 542 142 585 c 0
 185 628 236 650 295 650 c 0
 368 650 426 630 468 591 c 0
 510 552 532 499 532 432 c 0
EndSplineSet
Colour: d7d7d7
EndChar

StartChar: s.en_dash
Encoding: 8211 8211 310
GlifName: s.en_dash
Width: 600
VWidth: 1175
GlyphClass: 2
Flags: HMW
LayerCount: 2
Fore
SplineSet
55 229 m 1
 55 307 l 1
 547 307 l 1
 547 229 l 1
 55 229 l 1
EndSplineSet
Colour: d7d7d7
EndChar

StartChar: s.horizontal_bar
Encoding: 8213 8213 316
GlifName: s.horizontal_bar
Width: 2400
VWidth: 1175
GlyphClass: 2
Flags: HMW
LayerCount: 2
Fore
SplineSet
55 229 m 1
 55 307 l 1
 2347 307 l 1
 2347 229 l 1
 55 229 l 1
EndSplineSet
Colour: d7d7d7
EndChar

StartChar: s.lrm
Encoding: 8206 8206 317
GlifName: s.lrm
Width: 0
VWidth: 1331
GlyphClass: 2
Flags: HMW
LayerCount: 2
Fore
SplineSet
-25 -308 m 1
 -25 676 l 1
 196 676 l 1
 106 759 l 1
 138 790 l 1
 280 651 l 1
 138 510 l 1
 106 544 l 1
 196 628 l 1
 22 628 l 1
 22 -308 l 1
 -25 -308 l 1
EndSplineSet
Colour: d7d7d7
EndChar

StartChar: s.rlm
Encoding: 8207 8207 346
GlifName: s.rlm
Width: 0
VWidth: 1331
GlyphClass: 2
Flags: HMW
LayerCount: 2
Fore
SplineSet
22 676 m 1
 22 -308 l 1
 -25 -308 l 1
 -25 628 l 1
 -196 628 l 1
 -108 544 l 1
 -138 510 l 1
 -280 651 l 1
 -138 790 l 1
 -108 759 l 1
 -196 676 l 1
 22 676 l 1
EndSplineSet
Colour: d7d7d7
EndChar

StartChar: _.mark.he_yeh
Encoding: 65664 -1 400
GlifName: _.mark.he_yeh
Width: 209
VWidth: 1304
GlyphClass: 1
UnlinkRmOvrlpSave: 1
Flags: HMW
LayerCount: 2
Fore
SplineSet
192 89 m 2
 192 90 l 2
 192 95 184 100 167 104 c 0
 153 107 144 109 141 109 c 0
 122 114 113 124 113 141 c 0
 113 176 135 207 178 234 c 0
 191 241 202 245 210 245 c 1
 210 200 l 1
 186 200 165 187 147 162 c 1
 145 156 l 2
 145 152 157 146 180 138 c 0
 205 130 218 124 221 120 c 0
 224 115 226 106 226 92 c 0
 226 77 219 62 206 49 c 0
 169 12 101 -6 0 -6 c 1
 17 42 l 1
 96 42 150 53 178 75 c 0
 187 82 192 87 192 89 c 2
EndSplineSet
EndChar

StartChar: uni0000
Encoding: 0 0 401
GlifName: uni0000
Width: 497
VWidth: 0
GlyphClass: 2
Flags: HMW
LayerCount: 2
Fore
SplineSet
59 -251 m 1
 59 709 l 1
 438 709 l 1
 438 -251 l 1
 59 -251 l 1
105 -181 m 1
 387 -181 l 1
 387 648 l 1
 105 648 l 1
 105 -181 l 1
EndSplineSet
EndChar

StartChar: _.ghaf.medi
Encoding: 65665 -1 402
GlifName: _.ghaf.medi
Width: 536
VWidth: 0
GlyphClass: 2
Flags: HMW
LayerCount: 2
Fore
SplineSet
-50 50 m 0
 -50 75 -26 100 -1 100 c 2
 89 100 l 2
 149 100 253 124 260 160 c 1
 254 265 162 394 24 485 c 0
 13 493 6 505 6 516 c 0
 6 524 10 531 12 538 c 2
 30 594 l 2
 36 611 48 626 64 633 c 2
 434 800 l 2
 436 801 438 801 440 801 c 0
 447 801 450 793 450 782 c 0
 450 753 430 702 408 692 c 2
 99 553 l 1
 183 488 266 396 303 294 c 0
 344 193 371 100 536 100 c 1
 536 -0 l 1
 406 0 350 45 306 116 c 1
 273 34 185 0 80 -0 c 2
 -1 -0 l 1
 -26 1 -50 24 -50 50 c 0
58 707 m 0
 58 723 70 752 82 758 c 2
 361 884 l 2
 362 884 363 884 364 884 c 0
 368 884 369 879 369 873 c 0
 369 858 360 832 349 826 c 2
 67 698 l 2
 66 697 64 697 63 697 c 0
 59 697 58 701 58 707 c 0
EndSplineSet
Colour: ffda6b
EndChar

StartChar: _.ghaf.init
Encoding: 65666 -1 403
GlifName: _.ghaf.init
Width: 514
VWidth: 0
GlyphClass: 2
Flags: HMW
LayerCount: 2
Fore
SplineSet
-50 50 m 0
 -50 75 -26 100 -1 100 c 2
 89 100 l 2
 149 100 253 124 260 160 c 1
 254 265 162 394 24 485 c 0
 13 493 6 505 6 516 c 0
 6 524 10 531 12 538 c 2
 30 594 l 2
 36 611 48 626 64 633 c 2
 434 800 l 2
 436 801 438 801 440 801 c 0
 447 801 450 793 450 782 c 0
 450 753 430 702 408 692 c 2
 99 553 l 1
 234 448 321 311 321 198 c 0
 320 54 213 0 80 -0 c 2
 -1 -0 l 1
 -26 1 -50 24 -50 50 c 0
58 707 m 0
 58 723 70 752 82 758 c 2
 361 884 l 2
 362 884 363 884 364 884 c 0
 368 884 369 879 369 873 c 0
 369 858 360 832 349 826 c 2
 67 698 l 2
 66 697 64 697 63 697 c 0
 59 697 58 701 58 707 c 0
EndSplineSet
Colour: ffda6b
EndChar

StartChar: _.la.isol.fa
Encoding: 65667 -1 404
Width: 562
VWidth: 0
Flags: HMW
LayerCount: 2
Fore
SplineSet
64 603 m 0
 64 621 77 640 114 682 c 0
 121 684 126 683 128 676 c 2
 275 268 l 2
 277 261 277 254 277 246 c 0
 277 209 262 165 249 165 c 0
 247 165 245 165 243 168 c 2
 75 562 l 2
 68 579 64 592 64 603 c 0
114 50 m 0
 114 75 138 100 163 100 c 2
 167 100 l 2
 296 100 413 176 434 218 c 1
 409 700 l 2
 409 707 409 713 409 718 c 0
 409 752 416 762 485 800 c 0
 492 800 498 798 498 789 c 2
 498 283 l 2
 498 194 468 112 392 60 c 0
 328 16 240 0 164 -0 c 1
 139 1 114 24 114 50 c 0
EndSplineSet
Colour: ffda6b
EndChar

StartChar: _.la.fina.fa
Encoding: 65668 -1 405
Width: 674
VWidth: 0
Flags: HMW
LayerCount: 2
Fore
SplineSet
64 603 m 0
 64 621 77 640 114 682 c 0
 121 684 126 683 128 676 c 2
 275 268 l 2
 277 261 277 254 277 246 c 0
 277 209 262 165 249 165 c 0
 247 165 245 165 243 168 c 2
 75 562 l 2
 68 579 64 592 64 603 c 0
114 50 m 0
 114 75 138 100 163 100 c 2
 167 100 l 2
 296 100 413 176 434 218 c 1
 409 700 l 2
 409 707 409 713 409 718 c 0
 409 752 416 762 485 800 c 0
 492 800 498 798 498 789 c 2
 498 279 l 1
 504 183 529 100 674 100 c 1
 674 -0 l 1
 536 0 483 56 460 130 c 1
 443 104 420 80 392 60 c 0
 328 16 240 0 164 -0 c 1
 139 1 114 24 114 50 c 0
EndSplineSet
Colour: ffda6b
EndChar

StartChar: _.sing.alef_maad
Encoding: 65671 -1 408
Width: 435
VWidth: 1352
Flags: HMW
LayerCount: 2
Fore
SplineSet
50 -51 m 0
 57 88 127 106 199 106 c 0
 222 106 246 104 268 104 c 0
 312 104 349 111 358 157 c 0
 359 164 363 168 368 166 c 0
 384 160 386 158 385 140 c 0
 378 13 316 -4 249 -4 c 0
 224 -4 200 -1 176 -1 c 0
 129 -1 88 -10 73 -63 c 0
 71 -70 63 -68 57 -63 c 0
 52 -61 50 -60 50 -51 c 0
EndSplineSet
Colour: ffda6b
EndChar

StartChar: _.sing.star
Encoding: 65672 -1 409
Width: 503
VWidth: 1197
Flags: HMW
LayerCount: 2
Fore
SplineSet
50 543 m 1
 72 609 l 1
 123 593 l 2
 136 589 154 582 177 572 c 0
 200 562 215 557 221 555 c 1
 220 561 220 570 219 582 c 0
 218 594 218 603 217 609 c 0
 217 615 216 624 216 635 c 0
 216 646 216 655 216 660 c 2
 216 714 l 1
 286 714 l 1
 286 660 l 2
 286 623 284 588 280 555 c 1
 290 558 306 565 329 574 c 0
 352 583 368 590 379 593 c 2
 430 609 l 1
 453 543 l 1
 401 525 l 2
 390 522 373 518 350 512 c 0
 327 506 310 501 299 498 c 1
 305 491 327 464 365 417 c 1
 397 373 l 1
 341 332 l 1
 309 375 l 2
 289 402 270 432 252 463 c 1
 216 408 197 379 194 375 c 2
 162 332 l 1
 105 373 l 1
 136 417 l 2
 145 426 167 453 203 498 c 1
 192 501 175 506 152 512 c 0
 129 518 113 522 102 525 c 2
 50 543 l 1
EndSplineSet
Colour: ffda6b
EndChar

StartChar: _.sing.zarb
Encoding: 65673 -1 410
Width: 455
VWidth: 1279
Flags: HMW
LayerCount: 2
Fore
SplineSet
50 165 m 1
 156 271 l 1
 50 377 l 1
 121 448 l 1
 227 342 l 1
 333 448 l 1
 405 377 l 1
 299 271 l 1
 405 165 l 1
 333 93 l 1
 227 199 l 1
 121 93 l 1
 50 165 l 1
EndSplineSet
Colour: ffda6b
EndChar

StartChar: _.sing.khateh_amoodi
Encoding: 65674 -1 411
Width: 200
VWidth: 1331
Flags: HMW
LayerCount: 2
Fore
SplineSet
50 -100 m 1
 50 300 l 1
 150 300 l 1
 150 -100 l 1
 50 -100 l 1
50 401 m 1
 50 801 l 1
 150 801 l 1
 150 401 l 1
 50 401 l 1
EndSplineSet
Colour: ffda6b
EndChar
